STARTFONT 2.1
FONT big5.8400.16
SIZE 16 72 72
FONTBOUNDINGBOX 16 16 0 -2
STARTPROPERTIES 4
FONT_DESCENT 2
FONT_ASCENT 14
DEFAULT_CHAR 1
COPYRIGHT "Copyright (c) 1992 AT&T - All rights reserved."
ENDPROPERTIES
CHARS 367
STARTCHAR ch-1
ENCODING 1
SWIDTH 1000 0
DWIDTH 16 0
BBX 16 16 0 -2
BITMAP
0220
7fff
0220
0410
3ffe
0410
07f0
0410
07f0
0412
7fff
0220
0410
0808
0000
0000
ENDCHAR
STARTCHAR ch-3
ENCODING 3
SWIDTH 1000 0
DWIDTH 16 0
BBX 16 16 0 -2
BITMAP
0220
0222
7fff
0220
0084
3ffe
0410
0a28
1144
0080
7fff
0080
0080
0080
0000
0000
ENDCHAR
STARTCHAR ch-4
ENCODING 4
SWIDTH 1000 0
DWIDTH 16 0
BBX 16 16 0 -2
BITMAP
0220
7fff
0a20
0ffe
1402
27fa
0882
1082
3ffe
0082
088a
0ffa
0002
000c
0000
0000
ENDCHAR
STARTCHAR ch-6
ENCODING 6
SWIDTH 1000 0
DWIDTH 16 0
BBX 16 16 0 -2
BITMAP
0220
7ffe
0220
0104
1ffe
1084
1ffc
1104
1ffc
0280
0482
7fff
0080
0080
0000
0000
ENDCHAR
STARTCHAR ch-7
ENCODING 7
SWIDTH 1000 0
DWIDTH 16 0
BBX 16 16 0 -2
BITMAP
0410
7fff
0410
1ffc
0800
0ffc
0800
0ffc
0800
7fff
0844
0928
0a10
3c6f
0000
0000
ENDCHAR
STARTCHAR ch-9
ENCODING 9
SWIDTH 1000 0
DWIDTH 16 0
BBX 16 16 0 -2
BITMAP
0410
7fff
0410
0000
3f7f
2149
2149
3f49
217f
3f41
2140
2140
2541
427f
0000
0000
ENDCHAR
STARTCHAR ch-10
ENCODING 10
SWIDTH 1000 0
DWIDTH 16 0
BBX 16 16 0 -2
BITMAP
0410
7fff
0410
0080
7fff
0888
0888
1494
22a2
01c0
02a0
0490
388e
0080
0000
0000
ENDCHAR
STARTCHAR ch-11
ENCODING 11
SWIDTH 1000 0
DWIDTH 16 0
BBX 16 16 0 -2
BITMAP
0220
7fff
02a0
3ffe
0080
1ff8
7fff
1ff8
0100
7fff
0220
0440
03c0
1c3c
0000
0000
ENDCHAR
STARTCHAR ch-12
ENCODING 12
SWIDTH 1000 0
DWIDTH 16 0
BBX 16 16 0 -2
BITMAP
0410
0412
7fff
0410
3e7e
2242
3e7e
2242
2242
3e7e
0082
0082
010a
0604
0000
0000
ENDCHAR
STARTCHAR ch-13
ENCODING 13
SWIDTH 1000 0
DWIDTH 16 0
BBX 16 16 0 -2
BITMAP
0220
0222
7fff
0220
1004
0bfe
3524
08a8
1020
77ff
1020
1020
1020
1020
0000
0000
ENDCHAR
STARTCHAR ch-14
ENCODING 14
SWIDTH 1000 0
DWIDTH 16 0
BBX 16 16 0 -2
BITMAP
0808
7f7f
0808
1ff0
0080
7fff
0490
0a88
7fff
0220
0140
0080
0140
3e3e
0000
0000
ENDCHAR
STARTCHAR ch-15
ENCODING 15
SWIDTH 1000 0
DWIDTH 16 0
BBX 16 16 0 -2
BITMAP
0220
0222
7fff
0220
0400
07fc
0810
1320
3c7e
5002
1f7e
1002
1ffe
1002
0000
0000
ENDCHAR
STARTCHAR ch-16
ENCODING 16
SWIDTH 1000 0
DWIDTH 16 0
BBX 16 16 0 -2
BITMAP
0410
7f7f
0490
7fff
0080
1ff8
0088
3ffe
0088
1ff8
0080
08f8
1480
63ff
0000
0000
ENDCHAR
STARTCHAR ch-17
ENCODING 17
SWIDTH 1000 0
DWIDTH 16 0
BBX 16 16 0 -2
BITMAP
0220
7fff
0220
0480
0444
0ffe
1840
2ffc
4840
0ffc
0840
0840
0ffe
0800
0000
0000
ENDCHAR
STARTCHAR ch-18
ENCODING 18
SWIDTH 1000 0
DWIDTH 16 0
BBX 16 16 0 -2
BITMAP
0410
7fff
0410
0080
7fff
0808
1104
2222
0410
0ff8
0224
0421
0821
703f
0000
0000
ENDCHAR
STARTCHAR ch-19
ENCODING 19
SWIDTH 1000 0
DWIDTH 16 0
BBX 16 16 0 -2
BITMAP
0410
7fff
0410
0080
0080
7fff
4001
0ff8
0808
0ff8
0808
0ff8
0808
7fff
0000
0000
ENDCHAR
STARTCHAR ch-27
ENCODING 27
SWIDTH 1000 0
DWIDTH 16 0
BBX 16 16 0 -2
BITMAP
0410
7f7f
0410
0ff8
0808
0ff8
0808
0ff8
0808
0ff8
0410
3ffe
0410
0810
0000
0000
ENDCHAR
STARTCHAR ch-35
ENCODING 35
SWIDTH 1000 0
DWIDTH 16 0
BBX 16 16 0 -2
BITMAP
0410
0410
7fff
0410
0080
7fff
4001
0ff8
0080
0880
08f8
0c80
1280
21ff
0000
0000
ENDCHAR
STARTCHAR ch-41
ENCODING 41
SWIDTH 1000 0
DWIDTH 16 0
BBX 16 16 0 -2
BITMAP
0410
7fff
0410
0000
3e10
0892
0892
7f54
1c10
2a10
4928
0844
0882
0901
0000
0000
ENDCHAR
STARTCHAR ch-43
ENCODING 43
SWIDTH 1000 0
DWIDTH 16 0
BBX 16 16 0 -2
BITMAP
0410
7fff
0410
0000
1ffc
0080
7fff
0888
1084
7fff
1004
1ffc
1004
1ffc
0000
0000
ENDCHAR
STARTCHAR ch-44
ENCODING 44
SWIDTH 1000 0
DWIDTH 16 0
BBX 16 16 0 -2
BITMAP
0410
7fff
0410
1ffc
1084
1ffc
1084
1ffc
0080
7fff
4091
47f1
4011
4003
0000
0000
ENDCHAR
STARTCHAR ch-45
ENCODING 45
SWIDTH 1000 0
DWIDTH 16 0
BBX 16 16 0 -2
BITMAP
0410
7fff
0410
0000
1ffc
0080
3ffe
2082
3ffe
0080
7fff
4091
4ff9
400a
0000
0000
ENDCHAR
STARTCHAR ch-47
ENCODING 47
SWIDTH 1000 0
DWIDTH 16 0
BBX 16 16 0 -2
BITMAP
0410
7fff
1410
1ff8
6010
1ffc
1004
1ffc
1004
1ffc
1004
1ffc
0808
3006
0000
0000
ENDCHAR
STARTCHAR ch-48
ENCODING 48
SWIDTH 1000 0
DWIDTH 16 0
BBX 16 16 0 -2
BITMAP
0410
7fff
0410
0080
3ffe
0080
1ffc
1494
12a4
1ffc
0490
0888
7087
0080
0000
0000
ENDCHAR
STARTCHAR ch-49
ENCODING 49
SWIDTH 1000 0
DWIDTH 16 0
BBX 16 16 0 -2
BITMAP
0808
7f7f
0888
7fff
4001
3ffe
0000
1ffc
1004
1ffc
1004
1ffc
0000
7fff
0000
0000
ENDCHAR
STARTCHAR ch-50
ENCODING 50
SWIDTH 1000 0
DWIDTH 16 0
BBX 16 16 0 -2
BITMAP
0410
7fff
0410
3ffc
0888
37f6
0080
7fff
0400
0bf8
10a0
6040
00a0
3f1f
0000
0000
ENDCHAR
STARTCHAR ch-51
ENCODING 51
SWIDTH 1000 0
DWIDTH 16 0
BBX 16 16 0 -2
BITMAP
0410
7fff
0410
0080
7fff
0080
3ffe
2222
2142
27f2
2082
2ffa
2082
2084
0000
0000
ENDCHAR
STARTCHAR ch-52
ENCODING 52
SWIDTH 1000 0
DWIDTH 16 0
BBX 16 16 0 -2
BITMAP
0410
7fff
0410
0000
3f82
2082
3f92
2092
3f92
2092
3f92
1102
208a
4044
0000
0000
ENDCHAR
STARTCHAR ch-53
ENCODING 53
SWIDTH 1000 0
DWIDTH 16 0
BBX 16 16 0 -2
BITMAP
0410
7fff
0410
0ff8
0808
09f8
0908
3ffe
2002
27f2
2412
2412
27f2
200e
0000
0000
ENDCHAR
STARTCHAR ch-54
ENCODING 54
SWIDTH 1000 0
DWIDTH 16 0
BBX 16 16 0 -2
BITMAP
0410
7f7f
0490
3ffe
0080
3ffe
0080
7fff
0808
1ffc
280a
4ff9
0808
0ff8
0000
0000
ENDCHAR
STARTCHAR ch-55
ENCODING 55
SWIDTH 1000 0
DWIDTH 16 0
BBX 16 16 0 -2
BITMAP
0410
7fff
0410
0000
2482
1512
3f92
2092
3f92
2092
3f92
2082
208a
4184
0000
0000
ENDCHAR
STARTCHAR ch-56
ENCODING 56
SWIDTH 1000 0
DWIDTH 16 0
BBX 16 16 0 -2
BITMAP
0220
0222
7fff
0220
0684
18be
1084
1ebc
1084
1ffc
0140
0230
0c0e
3004
0000
0000
ENDCHAR
STARTCHAR ch-57
ENCODING 57
SWIDTH 1000 0
DWIDTH 16 0
BBX 16 16 0 -2
BITMAP
0410
7fff
0410
0002
3ffc
2000
3ffe
3ffe
2000
3fff
5111
1fff
1111
1112
0000
0000
ENDCHAR
STARTCHAR ch-58
ENCODING 58
SWIDTH 1000 0
DWIDTH 16 0
BBX 16 16 0 -2
BITMAP
0410
7fff
0410
7fff
5ffd
7fff
0000
1ffc
1004
1ffc
1004
1ffc
1004
1ffc
0000
0000
ENDCHAR
STARTCHAR ch-59
ENCODING 59
SWIDTH 1000 0
DWIDTH 16 0
BBX 16 16 0 -2
BITMAP
0410
7fff
0410
0000
0080
3ffe
0808
7fff
0000
1ffc
1004
1ffc
1004
1ffc
0000
0000
ENDCHAR
STARTCHAR ch-60
ENCODING 60
SWIDTH 1000 0
DWIDTH 16 0
BBX 16 16 0 -2
BITMAP
0808
7f7f
0808
3e3e
2222
3e3e
0000
1ffc
0000
7fff
0800
0ffc
0004
00fc
0000
0000
ENDCHAR
STARTCHAR ch-61
ENCODING 61
SWIDTH 1000 0
DWIDTH 16 0
BBX 16 16 0 -2
BITMAP
0410
7fff
0490
20fc
1188
1250
4020
24d8
0907
17fe
7104
1104
11fc
1104
0000
0000
ENDCHAR
STARTCHAR ch-63
ENCODING 63
SWIDTH 1000 0
DWIDTH 16 0
BBX 16 16 0 -2
BITMAP
0210
7fff
0210
2000
1802
0bfc
4020
37ff
1020
03fe
1202
6202
23fe
2202
0000
0000
ENDCHAR
STARTCHAR ch-64
ENCODING 64
SWIDTH 1000 0
DWIDTH 16 0
BBX 16 16 0 -2
BITMAP
0408
7fff
0408
1000
1001
7efe
1010
11ff
1410
18fe
7082
1082
10fe
3082
0000
0000
ENDCHAR
STARTCHAR ch-66
ENCODING 66
SWIDTH 1000 0
DWIDTH 16 0
BBX 16 16 0 -2
BITMAP
0410
7fff
0410
1000
1020
3e20
44fe
3e22
2a22
3e42
1484
1518
2401
47ff
0000
0000
ENDCHAR
STARTCHAR ch-67
ENCODING 67
SWIDTH 1000 0
DWIDTH 16 0
BBX 16 16 0 -2
BITMAP
0410
7fff
0410
0040
7c40
44ff
4520
7c20
443e
4420
443e
7c20
4420
0020
0000
0000
ENDCHAR
STARTCHAR ch-68
ENCODING 68
SWIDTH 1000 0
DWIDTH 16 0
BBX 16 16 0 -2
BITMAP
0410
7fff
0410
0040
3f40
217f
2150
3f90
211f
2110
3f1f
2110
2110
4310
0000
0000
ENDCHAR
STARTCHAR ch-69
ENCODING 69
SWIDTH 1000 0
DWIDTH 16 0
BBX 16 16 0 -2
BITMAP
0410
7fff
0410
0000
083e
0822
0822
143e
2222
4922
083e
1422
2222
417f
0000
0000
ENDCHAR
STARTCHAR ch-70
ENCODING 70
SWIDTH 1000 0
DWIDTH 16 0
BBX 16 16 0 -2
BITMAP
0220
7fff
0220
05fc
0904
09fc
1820
2fff
4820
0870
08a8
0927
0a22
0820
0000
0000
ENDCHAR
STARTCHAR ch-71
ENCODING 71
SWIDTH 1000 0
DWIDTH 16 0
BBX 16 16 0 -2
BITMAP
0410
7fff
0410
0000
0ff8
0110
00e0
3ffe
0482
1880
7fff
0490
0888
3086
0000
0000
ENDCHAR
STARTCHAR ch-73
ENCODING 73
SWIDTH 1000 0
DWIDTH 16 0
BBX 16 16 0 -2
BITMAP
0808
7f7f
0808
1110
7fff
1110
11f0
1000
1ffe
0080
7fff
0888
1084
6083
0000
0000
ENDCHAR
STARTCHAR ch-75
ENCODING 75
SWIDTH 1000 0
DWIDTH 16 0
BBX 16 16 0 -2
BITMAP
0410
7fff
0410
0040
3e40
227f
2281
3e7d
2245
2245
3e7d
2245
2201
4606
0000
0000
ENDCHAR
STARTCHAR ch-76
ENCODING 76
SWIDTH 1000 0
DWIDTH 16 0
BBX 16 16 0 -2
BITMAP
0410
7fff
0410
0000
0220
1ffc
0140
0080
0770
2222
7f7f
1414
0808
7777
0000
0000
ENDCHAR
STARTCHAR ch-77
ENCODING 77
SWIDTH 1000 0
DWIDTH 16 0
BBX 16 16 0 -2
BITMAP
0220
7fff
0220
1ffc
0000
0ff8
0808
0ff8
0000
3ffe
2082
3ffe
2082
3ffe
0000
0000
ENDCHAR
STARTCHAR ch-78
ENCODING 78
SWIDTH 1000 0
DWIDTH 16 0
BBX 16 16 0 -2
BITMAP
0410
7f7f
0410
1020
25fc
4824
13ff
3024
51fc
1020
11fc
1020
17ff
1020
0000
0000
ENDCHAR
STARTCHAR ch-80
ENCODING 80
SWIDTH 1000 0
DWIDTH 16 0
BBX 16 16 0 -2
BITMAP
0410
7fff
0410
03e0
0410
0808
17f4
6113
0210
0420
1ffc
1224
1224
7fff
0000
0000
ENDCHAR
STARTCHAR ch-81
ENCODING 81
SWIDTH 1000 0
DWIDTH 16 0
BBX 16 16 0 -2
BITMAP
0220
7fff
0220
0000
0404
3f04
047f
7f84
0424
3f14
0404
0404
7f94
0008
0000
0000
ENDCHAR
STARTCHAR ch-82
ENCODING 82
SWIDTH 1000 0
DWIDTH 16 0
BBX 16 16 0 -2
BITMAP
0410
7fff
0410
0000
0800
12fe
7e10
0810
1210
7f10
0810
1c10
6afe
0800
0000
0000
ENDCHAR
STARTCHAR ch-84
ENCODING 84
SWIDTH 1000 0
DWIDTH 16 0
BBX 16 16 0 -2
BITMAP
0410
7fff
0410
0000
047c
0804
11ff
3080
51fe
1010
13ff
1028
1044
1383
0000
0000
ENDCHAR
STARTCHAR ch-86
ENCODING 86
SWIDTH 1000 0
DWIDTH 16 0
BBX 16 16 0 -2
BITMAP
0410
7fff
0410
0080
7fff
4411
0808
3086
0090
7fff
0140
0220
0410
780f
0000
0000
ENDCHAR
STARTCHAR ch-87
ENCODING 87
SWIDTH 1000 0
DWIDTH 16 0
BBX 16 16 0 -2
BITMAP
0410
7fff
0410
0084
1ff8
0090
00a0
7fff
0400
0ffc
1404
27fc
0404
07fc
0000
0000
ENDCHAR
STARTCHAR ch-89
ENCODING 89
SWIDTH 1000 0
DWIDTH 16 0
BBX 16 16 0 -2
BITMAP
0220
7fff
0220
047e
3f42
0442
0c7e
0e42
1542
157e
2442
4442
047e
0442
0000
0000
ENDCHAR
STARTCHAR ch-90
ENCODING 90
SWIDTH 1000 0
DWIDTH 16 0
BBX 16 16 0 -2
BITMAP
0220
7fff
0410
1ffc
0410
07f0
0410
07f0
0412
7fff
1120
1210
1408
1ffe
0000
0000
ENDCHAR
STARTCHAR ch-91
ENCODING 91
SWIDTH 1000 0
DWIDTH 16 0
BBX 16 16 0 -2
BITMAP
0222
7fff
0220
0ff8
0808
0ff8
0808
0ff8
07ff
0882
1142
2a22
0fea
0004
0000
0000
ENDCHAR
STARTCHAR ch-93
ENCODING 93
SWIDTH 1000 0
DWIDTH 16 0
BBX 16 16 0 -2
BITMAP
0410
7fff
0410
0000
7fc8
1248
249f
4909
2489
1249
7fc9
0411
0421
7fc6
0000
0000
ENDCHAR
STARTCHAR ch-94
ENCODING 94
SWIDTH 1000 0
DWIDTH 16 0
BBX 16 16 0 -2
BITMAP
0410
7fff
0410
0000
7dff
0444
7c7c
4044
7c7c
4444
05ff
0404
2804
1004
0000
0000
ENDCHAR
STARTCHAR ch-95
ENCODING 95
SWIDTH 1000 0
DWIDTH 16 0
BBX 16 16 0 -2
BITMAP
0410
7fff
0410
1ffc
3004
5ffc
1004
1ffc
0000
1ffc
0080
1ffc
0080
7fff
0000
0000
ENDCHAR
STARTCHAR ch-96
ENCODING 96
SWIDTH 1000 0
DWIDTH 16 0
BBX 16 16 0 -2
BITMAP
0410
7f7f
0410
08fc
13ff
3004
50fc
13ff
1201
10f8
1050
1020
1050
138e
0000
0000
ENDCHAR
STARTCHAR ch-97
ENCODING 97
SWIDTH 1000 0
DWIDTH 16 0
BBX 16 16 0 -2
BITMAP
0410
7fff
0c10
1fff
20a1
0ff9
0081
0ff9
0889
0ff9
0889
0ff9
0889
089b
0000
0000
ENDCHAR
STARTCHAR ch-99
ENCODING 99
SWIDTH 1000 0
DWIDTH 16 0
BBX 16 16 0 -2
BITMAP
0808
7fff
0818
0fe0
0080
7fff
1ffc
1084
1ffc
1084
1ffc
0080
1ffc
7fff
0000
0000
ENDCHAR
STARTCHAR ch-101
ENCODING 101
SWIDTH 1000 0
DWIDTH 16 0
BBX 16 16 0 -2
BITMAP
0410
7fff
0410
0808
0410
7fff
0000
1f82
1092
1f92
1092
1f92
1082
2186
0000
0000
ENDCHAR
STARTCHAR ch-102
ENCODING 102
SWIDTH 1000 0
DWIDTH 16 0
BBX 16 16 0 -2
BITMAP
0808
7f7f
0888
1ffc
0084
7fff
1ffc
1004
1ffc
0080
1ffc
0880
7fff
0080
0000
0000
ENDCHAR
STARTCHAR ch-103
ENCODING 103
SWIDTH 1000 0
DWIDTH 16 0
BBX 16 16 0 -2
BITMAP
0410
7fff
0410
0000
7fc8
041f
7fc9
4049
5f49
0209
7fc9
0409
0411
0c22
0000
0000
ENDCHAR
STARTCHAR ch-104
ENCODING 104
SWIDTH 1000 0
DWIDTH 16 0
BBX 16 16 0 -2
BITMAP
0410
7fff
0410
1ffc
1084
1ffc
1084
1ffc
0000
7fff
1028
1210
1428
3807
0000
0000
ENDCHAR
STARTCHAR ch-105
ENCODING 105
SWIDTH 1000 0
DWIDTH 16 0
BBX 16 16 0 -2
BITMAP
0220
7fff
0220
0802
10ff
3e92
2292
22fe
3e82
2280
2280
3e81
2281
007f
0000
0000
ENDCHAR
STARTCHAR ch-107
ENCODING 107
SWIDTH 1000 0
DWIDTH 16 0
BBX 16 16 0 -2
BITMAP
0220
7fff
0220
0000
043e
3fa2
043e
0422
1f3e
1122
1122
1f22
114a
0084
0000
0000
ENDCHAR
STARTCHAR ch-108
ENCODING 108
SWIDTH 1000 0
DWIDTH 16 0
BBX 16 16 0 -2
BITMAP
0220
7fff
0220
3ffe
0840
0f4c
1170
0a42
3c3e
0220
7fff
0220
0420
0820
0000
0000
ENDCHAR
STARTCHAR ch-109
ENCODING 109
SWIDTH 1000 0
DWIDTH 16 0
BBX 16 16 0 -2
BITMAP
0410
7fff
0410
3f7e
2102
217e
3f00
207e
3f02
2024
3f18
2018
2024
20c3
0000
0000
ENDCHAR
STARTCHAR ch-110
ENCODING 110
SWIDTH 1000 0
DWIDTH 16 0
BBX 16 16 0 -2
BITMAP
0410
7fff
0410
0000
013c
7e24
1024
1f47
1000
1f3e
1022
7f14
1008
1077
0000
0000
ENDCHAR
STARTCHAR ch-111
ENCODING 111
SWIDTH 1000 0
DWIDTH 16 0
BBX 16 16 0 -2
BITMAP
0410
7fff
0410
0000
0840
1240
7eff
0801
1221
7f11
0809
1c01
6b0a
0804
0000
0000
ENDCHAR
STARTCHAR ch-112
ENCODING 112
SWIDTH 1000 0
DWIDTH 16 0
BBX 16 16 0 -2
BITMAP
0410
7fff
0410
0840
0884
1102
67ff
2104
2242
24fd
2188
2050
2020
27df
0000
0000
ENDCHAR
STARTCHAR ch-115
ENCODING 115
SWIDTH 1000 0
DWIDTH 16 0
BBX 16 16 0 -2
BITMAP
0220
7fff
0228
0024
1ffe
1024
1fa4
1428
1528
1f90
1510
2229
2545
4883
0000
0000
ENDCHAR
STARTCHAR ch-116
ENCODING 116
SWIDTH 1000 0
DWIDTH 16 0
BBX 16 16 0 -2
BITMAP
0410
7fff
0410
0000
0014
3ffe
2010
2fd0
2011
2fd2
284c
2fcd
4813
0061
0000
0000
ENDCHAR
STARTCHAR ch-117
ENCODING 117
SWIDTH 1000 0
DWIDTH 16 0
BBX 16 16 0 -2
BITMAP
0410
0412
7fff
0410
1f50
1124
0a18
0408
1ff7
6082
1ffc
0140
0220
1c1c
0000
0000
ENDCHAR
STARTCHAR ch-118
ENCODING 118
SWIDTH 1000 0
DWIDTH 16 0
BBX 16 16 0 -2
BITMAP
0410
7fff
0490
3ffe
07f0
0410
07f0
3fff
2001
4ffa
0080
0080
0280
0100
0000
0000
ENDCHAR
STARTCHAR ch-119
ENCODING 119
SWIDTH 1000 0
DWIDTH 16 0
BBX 16 16 0 -2
BITMAP
0410
7fff
0410
7fff
4081
4ff9
1ffc
1084
1ffc
1084
1ffc
7fff
0080
0080
0000
0000
ENDCHAR
STARTCHAR ch-120
ENCODING 120
SWIDTH 1000 0
DWIDTH 16 0
BBX 16 16 0 -2
BITMAP
0410
7fff
0410
1ffc
1084
1ffc
1084
1ffc
0000
2882
2841
2809
4804
07fc
0000
0000
ENDCHAR
STARTCHAR ch-121
ENCODING 121
SWIDTH 1000 0
DWIDTH 16 0
BBX 16 16 0 -2
BITMAP
0410
7fff
0410
0000
2100
11ff
7e10
2090
3dfe
2492
2492
4490
0481
18ff
0000
0000
ENDCHAR
STARTCHAR ch-122
ENCODING 122
SWIDTH 1000 0
DWIDTH 16 0
BBX 16 16 0 -2
BITMAP
0220
7fff
07f0
0410
07f0
7fff
0410
07f0
0410
07f0
0410
3ffe
0010
0010
0000
0000
ENDCHAR
STARTCHAR ch-125
ENCODING 125
SWIDTH 1000 0
DWIDTH 16 0
BBX 16 16 0 -2
BITMAP
0410
7fff
0410
0000
3ffe
0220
1ffc
1224
1ffc
0220
3ffe
0140
0080
3f7e
0000
0000
ENDCHAR
STARTCHAR ch-126
ENCODING 126
SWIDTH 1000 0
DWIDTH 16 0
BBX 16 16 0 -2
BITMAP
0410
7fff
0410
1000
3f7e
4222
142e
0821
703f
0102
2881
2845
4804
07fc
0000
0000
ENDCHAR
STARTCHAR ch-130
ENCODING 130
SWIDTH 1000 0
DWIDTH 16 0
BBX 16 16 0 -2
BITMAP
0808
7f7f
0808
0080
3ffe
0410
0220
7fff
4081
1ffc
1084
109c
0080
0080
0000
0000
ENDCHAR
STARTCHAR ch-134
ENCODING 134
SWIDTH 1000 0
DWIDTH 16 0
BBX 16 16 0 -2
BITMAP
0410
7fff
0410
00fc
7f24
0874
7f47
0000
0410
7fff
0220
0140
0080
3f7e
0000
0000
ENDCHAR
STARTCHAR ch-141
ENCODING 141
SWIDTH 1000 0
DWIDTH 16 0
BBX 16 16 0 -2
BITMAP
0410
7fff
0410
0420
0240
0ff8
0108
07fc
0804
1fff
7249
1249
2249
000e
0000
0000
ENDCHAR
STARTCHAR ch-142
ENCODING 142
SWIDTH 1000 0
DWIDTH 16 0
BBX 16 16 0 -2
BITMAP
0220
7fff
1220
080e
05f0
2106
1178
0552
0954
3248
1248
1254
1467
1842
0000
0000
ENDCHAR
STARTCHAR ch-143
ENCODING 143
SWIDTH 1000 0
DWIDTH 16 0
BBX 16 16 0 -2
BITMAP
0410
7fff
0410
7fff
4001
5ffd
0140
1ffc
1144
1244
143c
13e4
1004
1ffc
0000
0000
ENDCHAR
STARTCHAR ch-144
ENCODING 144
SWIDTH 1000 0
DWIDTH 16 0
BBX 16 16 0 -2
BITMAP
0808
7f7f
0908
0600
1ffc
1084
1ffc
1084
1ffc
024a
025e
0441
0841
703f
0000
0000
ENDCHAR
STARTCHAR ch-145
ENCODING 145
SWIDTH 1000 0
DWIDTH 16 0
BBX 16 16 0 -2
BITMAP
0410
7f7f
0510
7e3c
3f25
2125
3f47
2100
3f3f
2021
3f12
210c
2112
4661
0000
0000
ENDCHAR
STARTCHAR ch-148
ENCODING 148
SWIDTH 1000 0
DWIDTH 16 0
BBX 16 16 0 -2
BITMAP
0410
7fff
0410
0020
79fc
4820
4820
4bfe
7808
4fff
4888
4848
7808
0030
0000
0000
ENDCHAR
STARTCHAR ch-151
ENCODING 151
SWIDTH 1000 0
DWIDTH 16 0
BBX 16 16 0 -2
BITMAP
0420
7fff
0420
2020
11f8
0108
21f8
1108
01f8
0502
0924
3158
1187
1102
0000
0000
ENDCHAR
STARTCHAR ch-152
ENCODING 152
SWIDTH 1000 0
DWIDTH 16 0
BBX 16 16 0 -2
BITMAP
0410
7fff
0410
223e
7f22
1422
083e
3608
0ff0
1ffc
0080
3ffe
0080
0380
0000
0000
ENDCHAR
STARTCHAR ch-153
ENCODING 153
SWIDTH 1000 0
DWIDTH 16 0
BBX 16 16 0 -2
BITMAP
0220
3ffe
0220
3fff
2001
47f2
3ffe
0308
1d98
0d50
3248
0c47
3142
0080
0000
0000
ENDCHAR
STARTCHAR ch-154
ENCODING 154
SWIDTH 1000 0
DWIDTH 16 0
BBX 16 16 0 -2
BITMAP
0410
7f7f
0410
7fff
0000
0ff8
0808
0ff8
0000
3ffe
2412
2ffa
2082
209e
0000
0000
ENDCHAR
STARTCHAR ch-155
ENCODING 155
SWIDTH 1000 0
DWIDTH 16 0
BBX 16 16 0 -2
BITMAP
0410
7f7f
0410
0000
2008
3f3e
240a
240a
5f0a
047f
1508
1514
1522
1f41
0000
0000
ENDCHAR
STARTCHAR ch-156
ENCODING 156
SWIDTH 1000 0
DWIDTH 16 0
BBX 16 16 0 -2
BITMAP
0410
0410
7f7f
0410
0000
3f7e
0000
7f7f
0408
152a
24c9
4488
0408
0408
0000
0000
ENDCHAR
STARTCHAR ch-157
ENCODING 157
SWIDTH 1000 0
DWIDTH 16 0
BBX 16 16 0 -2
BITMAP
0410
7f7f
0410
3fff
2100
23fe
2602
23fe
2202
23fe
20a8
2124
4622
0060
0000
0000
ENDCHAR
STARTCHAR ch-158
ENCODING 158
SWIDTH 1000 0
DWIDTH 16 0
BBX 16 16 0 -2
BITMAP
0808
7f7f
0410
4080
3108
1208
46ff
3222
1222
0a22
1222
6214
22ff
2200
0000
0000
ENDCHAR
STARTCHAR ch-159
ENCODING 159
SWIDTH 1000 0
DWIDTH 16 0
BBX 16 16 0 -2
BITMAP
0410
7fff
0410
0000
1040
087f
7e81
247d
2445
2445
247d
2401
7e01
000e
0000
0000
ENDCHAR
STARTCHAR ch-160
ENCODING 160
SWIDTH 1000 0
DWIDTH 16 0
BBX 16 16 0 -2
BITMAP
0410
7fff
0410
0400
0ff8
1808
2ff8
0808
0ff8
0808
0ff8
2884
284a
0ff8
0000
0000
ENDCHAR
STARTCHAR ch-161
ENCODING 161
SWIDTH 1000 0
DWIDTH 16 0
BBX 16 16 0 -2
BITMAP
0220
7fff
0080
1ffc
0220
3fff
2101
4082
1ffc
0200
03f8
0208
0408
1830
0000
0000
ENDCHAR
STARTCHAR ch-162
ENCODING 162
SWIDTH 1000 0
DWIDTH 16 0
BBX 16 16 0 -2
BITMAP
0410
7fff
0430
7850
5088
6104
52fa
4c21
6bfe
5070
40a8
4124
4623
4060
0000
0000
ENDCHAR
STARTCHAR ch-164
ENCODING 164
SWIDTH 1000 0
DWIDTH 16 0
BBX 16 16 0 -2
BITMAP
0410
7fff
0430
3050
1088
4104
32fa
1421
03fe
1020
60a8
2727
2020
2060
0000
0000
ENDCHAR
STARTCHAR ch-167
ENCODING 167
SWIDTH 1000 0
DWIDTH 16 0
BBX 16 16 0 -2
BITMAP
0410
7fff
0410
0000
0012
3fff
2210
2390
2210
2f92
2894
2888
2f95
4023
0000
0000
ENDCHAR
STARTCHAR ch-168
ENCODING 168
SWIDTH 1000 0
DWIDTH 16 0
BBX 16 16 0 -2
BITMAP
0410
7f7f
0410
08fe
18fe
2810
49ff
08fe
0882
08fe
0882
08fe
0882
0906
0000
0000
ENDCHAR
STARTCHAR ch-169
ENCODING 169
SWIDTH 1000 0
DWIDTH 16 0
BBX 16 16 0 -2
BITMAP
0410
7fff
0410
0100
3e3e
0422
7fa2
043e
0e22
1522
24be
4422
0422
047f
0000
0000
ENDCHAR
STARTCHAR ch-170
ENCODING 170
SWIDTH 1000 0
DWIDTH 16 0
BBX 16 16 0 -2
BITMAP
0410
7f7f
0494
7fff
0080
1ffc
1084
1ffc
1084
1ffc
1094
7fff
0210
0070
0000
0000
ENDCHAR
STARTCHAR ch-171
ENCODING 171
SWIDTH 1000 0
DWIDTH 16 0
BBX 16 16 0 -2
BITMAP
0808
7f7f
0808
0410
3ffe
0080
3ffe
0080
7fff
0400
0bfe
1020
2020
4fff
0000
0000
ENDCHAR
STARTCHAR ch-172
ENCODING 172
SWIDTH 1000 0
DWIDTH 16 0
BBX 16 16 0 -2
BITMAP
0410
3f7e
0410
7fff
4101
43e1
0440
1ffc
1084
1ffc
0140
0252
044a
387e
0000
0000
ENDCHAR
STARTCHAR ch-174
ENCODING 174
SWIDTH 1000 0
DWIDTH 16 0
BBX 16 16 0 -2
BITMAP
0410
7f7f
0410
0080
7fff
4201
4421
0ffc
1420
07fc
0420
07fc
0420
07fc
0000
0000
ENDCHAR
STARTCHAR ch-175
ENCODING 175
SWIDTH 1000 0
DWIDTH 16 0
BBX 16 16 0 -2
BITMAP
0881
7ff1
0885
3de5
2525
2525
3de5
2525
2525
3de5
2521
2521
2d65
4622
0000
0000
ENDCHAR
STARTCHAR ch-176
ENCODING 176
SWIDTH 1000 0
DWIDTH 16 0
BBX 16 16 0 -2
BITMAP
0410
7f7f
0410
083c
1024
3f25
3147
2900
253e
7fa2
3114
2908
2514
4323
0000
0000
ENDCHAR
STARTCHAR ch-177
ENCODING 177
SWIDTH 1000 0
DWIDTH 16 0
BBX 16 16 0 -2
BITMAP
0410
7fff
0410
1022
7fff
1020
13fe
1a22
33fe
5222
13fe
1222
3222
1204
0000
0000
ENDCHAR
STARTCHAR ch-178
ENCODING 178
SWIDTH 1000 0
DWIDTH 16 0
BBX 16 16 0 -2
BITMAP
0220
7fff
0228
2024
17ff
0020
43fe
2a22
0bfe
1222
73fe
1222
122a
1224
0000
0000
ENDCHAR
STARTCHAR ch-180
ENCODING 180
SWIDTH 1000 0
DWIDTH 16 0
BBX 16 16 0 -2
BITMAP
0220
7fff
0220
113e
0a22
7fe2
043e
24a2
24a2
3fbe
04a2
0442
084a
1084
0000
0000
ENDCHAR
STARTCHAR ch-182
ENCODING 182
SWIDTH 1000 0
DWIDTH 16 0
BBX 16 16 0 -2
BITMAP
0410
7f7f
0410
0000
0808
1224
2442
7881
107e
2222
7e22
0022
5442
548c
0000
0000
ENDCHAR
STARTCHAR ch-184
ENCODING 184
SWIDTH 1000 0
DWIDTH 16 0
BBX 16 16 0 -2
BITMAP
0220
0222
7fff
0220
0ff0
0024
1ecc
0290
0498
1a87
6102
0ff8
1246
2122
0000
0000
ENDCHAR
STARTCHAR ch-185
ENCODING 185
SWIDTH 1000 0
DWIDTH 16 0
BBX 16 16 0 -2
BITMAP
0220
7fff
0a28
0410
3ffe
0220
1ffc
7fff
1ffc
0630
0a28
1227
6222
0220
0000
0000
ENDCHAR
STARTCHAR ch-186
ENCODING 186
SWIDTH 1000 0
DWIDTH 16 0
BBX 16 16 0 -2
BITMAP
0220
7fff
0080
0ffe
4900
2900
09fc
1a20
2820
4fff
1050
1088
2107
0602
0000
0000
ENDCHAR
STARTCHAR ch-187
ENCODING 187
SWIDTH 1000 0
DWIDTH 16 0
BBX 16 16 0 -2
BITMAP
0410
7fff
0410
3f3f
0101
3f3f
2020
3f3f
0101
3939
0101
3939
0101
0606
0000
0000
ENDCHAR
STARTCHAR ch-188
ENCODING 188
SWIDTH 1000 0
DWIDTH 16 0
BBX 16 16 0 -2
BITMAP
0808
7e3f
0be8
0490
0ff8
1414
27f2
4411
07f0
0800
17f8
2408
4408
07f8
0000
0000
ENDCHAR
STARTCHAR ch-191
ENCODING 191
SWIDTH 1000 0
DWIDTH 16 0
BBX 16 16 0 -2
BITMAP
0220
7fff
02a0
3ffe
0ff8
0808
0ff8
3ffe
2002
27f2
2412
27f2
200a
2004
0000
0000
ENDCHAR
STARTCHAR ch-192
ENCODING 192
SWIDTH 1000 0
DWIDTH 16 0
BBX 16 16 0 -2
BITMAP
1008
7e7e
0810
7efe
0410
0824
1a78
0410
0c24
14fe
6410
0454
1492
0810
0000
0000
ENDCHAR
STARTCHAR ch-193
ENCODING 193
SWIDTH 1000 0
DWIDTH 16 0
BBX 16 16 0 -2
BITMAP
0220
7fff
02a0
3ffe
07f0
7fff
0220
07f8
1887
6ffa
02a0
0498
1884
0080
0000
0000
ENDCHAR
STARTCHAR ch-194
ENCODING 194
SWIDTH 1000 0
DWIDTH 16 0
BBX 16 16 0 -2
BITMAP
0410
7f7f
0410
7fff
4001
4ff9
0808
0ff8
0808
0ff8
0080
7fff
0220
1c1c
0000
0000
ENDCHAR
STARTCHAR ch-196
ENCODING 196
SWIDTH 1000 0
DWIDTH 16 0
BBX 16 16 0 -2
BITMAP
0220
7f7f
0080
3ffe
0420
0fc0
0310
0c08
3ffe
1ffc
1084
1ffc
1084
1ffc
0000
0000
ENDCHAR
STARTCHAR ch-197
ENCODING 197
SWIDTH 1000 0
DWIDTH 16 0
BBX 16 16 0 -2
BITMAP
0410
7fff
0410
4040
3020
17ff
4080
3104
13fe
0124
1124
6124
2224
2407
0000
0000
ENDCHAR
STARTCHAR ch-198
ENCODING 198
SWIDTH 1000 0
DWIDTH 16 0
BBX 16 16 0 -2
BITMAP
0408
3f3f
0448
3fff
2208
2ffe
2208
23f8
2040
2ffe
2842
284a
4844
0040
0000
0000
ENDCHAR
STARTCHAR ch-199
ENCODING 199
SWIDTH 1000 0
DWIDTH 16 0
BBX 16 16 0 -2
BITMAP
0410
7f7f
0410
0ff8
0808
08f8
0888
7fff
4ff9
0808
0ff8
0ff8
0808
1018
0000
0000
ENDCHAR
STARTCHAR ch-201
ENCODING 201
SWIDTH 1000 0
DWIDTH 16 0
BBX 16 16 0 -2
BITMAP
0820
7fff
0820
0080
3fff
2001
4492
0948
0220
0ff8
1417
6412
07f0
0410
0000
0000
ENDCHAR
STARTCHAR ch-202
ENCODING 202
SWIDTH 1000 0
DWIDTH 16 0
BBX 16 16 0 -2
BITMAP
0410
7f7f
0410
0220
0510
1a2c
07f0
0010
3f7e
0912
1122
254a
0912
1224
0000
0000
ENDCHAR
STARTCHAR ch-203
ENCODING 203
SWIDTH 1000 0
DWIDTH 16 0
BBX 16 16 0 -2
BITMAP
0808
7f7f
0410
0080
0ff8
0080
3ffe
0410
1ff8
0004
1ffc
1224
1224
7fff
0000
0000
ENDCHAR
STARTCHAR ch-204
ENCODING 204
SWIDTH 1000 0
DWIDTH 16 0
BBX 16 16 0 -2
BITMAP
0410
7f7f
0410
0888
1494
22a2
1ffc
0080
7fff
0400
0bf8
1110
00e0
0f1e
0000
0000
ENDCHAR
STARTCHAR ch-205
ENCODING 205
SWIDTH 1000 0
DWIDTH 16 0
BBX 16 16 0 -2
BITMAP
0220
7fff
02a0
1fe8
0090
7fff
03f4
0e04
33fc
07f8
0408
07f8
0408
07f8
0000
0000
ENDCHAR
STARTCHAR ch-206
ENCODING 206
SWIDTH 1000 0
DWIDTH 16 0
BBX 16 16 0 -2
BITMAP
0410
7f7f
0450
3fff
2040
3ffc
2044
3fff
2044
3ffc
2040
2ffe
4802
0ffe
0000
0000
ENDCHAR
STARTCHAR ch-207
ENCODING 207
SWIDTH 1000 0
DWIDTH 16 0
BBX 16 16 0 -2
BITMAP
0410
7fff
0410
0000
0202
3c3c
2020
2828
2a2a
2a2a
2a2a
2929
4aca
1e1e
0000
0000
ENDCHAR
STARTCHAR ch-208
ENCODING 208
SWIDTH 1000 0
DWIDTH 16 0
BBX 16 16 0 -2
BITMAP
0220
7fff
0220
1ffe
17f8
1fff
1488
1570
160f
1010
2ffe
2210
4110
0030
0000
0000
ENDCHAR
STARTCHAR ch-209
ENCODING 209
SWIDTH 1000 0
DWIDTH 16 0
BBX 16 16 0 -2
BITMAP
0410
7f7f
0490
3ffe
0000
0ff8
0808
7fff
0808
0ff8
0c48
1530
660e
0404
0000
0000
ENDCHAR
STARTCHAR ch-210
ENCODING 210
SWIDTH 1000 0
DWIDTH 16 0
BBX 16 16 0 -2
BITMAP
0410
7fff
0410
0800
7f02
083c
7f08
4908
7f7f
4908
7f08
0808
7f08
0808
0000
0000
ENDCHAR
STARTCHAR ch-211
ENCODING 211
SWIDTH 1000 0
DWIDTH 16 0
BBX 16 16 0 -2
BITMAP
0410
7fff
0450
0820
0bfe
1088
3088
5050
17ff
1000
11fc
1104
1104
11fc
0000
0000
ENDCHAR
STARTCHAR ch-212
ENCODING 212
SWIDTH 1000 0
DWIDTH 16 0
BBX 16 16 0 -2
BITMAP
0410
7fff
0410
0808
0410
3ffe
0080
3ffe
0080
7fff
0000
2222
4221
4221
0000
0000
ENDCHAR
STARTCHAR ch-214
ENCODING 214
SWIDTH 1000 0
DWIDTH 16 0
BBX 16 16 0 -2
BITMAP
0410
7fff
0490
1ffc
1224
11c4
1224
1ffc
1044
1f4c
1050
1362
3c42
103e
0000
0000
ENDCHAR
STARTCHAR ch-215
ENCODING 215
SWIDTH 1000 0
DWIDTH 16 0
BBX 16 16 0 -2
BITMAP
0410
7fff
0410
0000
1020
2020
4bfe
1020
37ff
5120
113e
11a0
1260
143f
0000
0000
ENDCHAR
STARTCHAR ch-219
ENCODING 219
SWIDTH 1000 0
DWIDTH 16 0
BBX 16 16 0 -2
BITMAP
0410
7fff
0410
0820
7f20
083f
7f42
4912
4912
1c12
2a0c
490c
0812
1021
0000
0000
ENDCHAR
STARTCHAR ch-231
ENCODING 231
SWIDTH 1000 0
DWIDTH 16 0
BBX 16 16 0 -2
BITMAP
0410
7fff
0410
0000
0440
08ff
7144
1428
15ef
1410
15ff
1454
1092
1111
0000
0000
ENDCHAR
STARTCHAR ch-232
ENCODING 232
SWIDTH 1000 0
DWIDTH 16 0
BBX 16 16 0 -2
BITMAP
0410
7f7f
0410
0840
107e
34a4
5418
1424
14fe
1444
147c
1444
107c
108c
0000
0000
ENDCHAR
STARTCHAR ch-233
ENCODING 233
SWIDTH 1000 0
DWIDTH 16 0
BBX 16 16 0 -2
BITMAP
0410
7fff
0410
0000
3e40
047e
18a4
3e18
0ae7
1810
287e
4812
0822
1846
0000
0000
ENDCHAR
STARTCHAR ch-234
ENCODING 234
SWIDTH 1000 0
DWIDTH 16 0
BBX 16 16 0 -2
BITMAP
0410
7fff
0410
0000
23f8
1010
7bfe
1222
23fe
4222
23fe
1222
2a22
47ff
0000
0000
ENDCHAR
STARTCHAR ch-235
ENCODING 235
SWIDTH 1000 0
DWIDTH 16 0
BBX 16 16 0 -2
BITMAP
0410
7fff
0410
0000
27fc
10c0
7b64
10b8
2120
4660
20b0
172e
10c0
6fff
0000
0000
ENDCHAR
STARTCHAR ch-236
ENCODING 236
SWIDTH 1000 0
DWIDTH 16 0
BBX 16 16 0 -2
BITMAP
0220
7fff
02a0
20fc
1188
0a70
788c
1323
25fc
11fc
0820
1bfe
2420
43ff
0000
0000
ENDCHAR
STARTCHAR ch-238
ENCODING 238
SWIDTH 1000 0
DWIDTH 16 0
BBX 16 16 0 -2
BITMAP
0808
7f7f
0828
27ff
1020
7bfe
0a22
13fe
3222
0bfe
0820
77ff
0820
07ff
0000
0000
ENDCHAR
STARTCHAR ch-239
ENCODING 239
SWIDTH 1000 0
DWIDTH 16 0
BBX 16 16 0 -2
BITMAP
0410
7fff
0410
0000
1104
2104
4a8a
1000
3020
513c
1120
11a0
1260
143f
0000
0000
ENDCHAR
STARTCHAR ch-240
ENCODING 240
SWIDTH 1000 0
DWIDTH 16 0
BBX 16 16 0 -2
BITMAP
0210
7fff
0420
08bc
12a0
24a2
0bff
1820
2920
493c
09a0
0960
0a30
0c0f
0000
0000
ENDCHAR
STARTCHAR ch-241
ENCODING 241
SWIDTH 1000 0
DWIDTH 16 0
BBX 16 16 0 -2
BITMAP
0410
7fff
0410
4000
3088
1050
43fe
3088
1088
07ff
1088
6088
2108
2208
0000
0000
ENDCHAR
STARTCHAR ch-242
ENCODING 242
SWIDTH 1000 0
DWIDTH 16 0
BBX 16 16 0 -2
BITMAP
0410
7fff
0410
7fff
4000
43f8
4208
43f8
4000
5f1f
5111
5f1f
4000
7fff
0000
0000
ENDCHAR
STARTCHAR ch-243
ENCODING 243
SWIDTH 1000 0
DWIDTH 16 0
BBX 16 16 0 -2
BITMAP
0808
7f7f
0a28
7fff
0220
03e0
3ffe
2082
3ffe
0080
1ffc
0080
3ffe
7fff
0000
0000
ENDCHAR
STARTCHAR ch-244
ENCODING 244
SWIDTH 1000 0
DWIDTH 16 0
BBX 16 16 0 -2
BITMAP
0808
7e3f
0888
3ffe
1ffc
1084
1ffc
1084
1ffd
7fff
0004
3ffe
0204
010c
0000
0000
ENDCHAR
STARTCHAR ch-246
ENCODING 246
SWIDTH 1000 0
DWIDTH 16 0
BBX 16 16 0 -2
BITMAP
0410
7fff
0410
0000
0048
0088
3dff
2488
24ff
2488
24ff
3c88
24ff
0080
0000
0000
ENDCHAR
STARTCHAR ch-247
ENCODING 247
SWIDTH 1000 0
DWIDTH 16 0
BBX 16 16 0 -2
BITMAP
0410
7fff
0410
0000
0848
0888
7fff
0888
08ff
0c88
78ff
0888
08ff
1880
0000
0000
ENDCHAR
STARTCHAR ch-249
ENCODING 249
SWIDTH 1000 0
DWIDTH 16 0
BBX 16 16 0 -2
BITMAP
0410
7fff
0410
1200
220f
47f9
1089
37f9
5089
14e9
148e
17f8
1008
1008
0000
0000
ENDCHAR
STARTCHAR ch-250
ENCODING 250
SWIDTH 1000 0
DWIDTH 16 0
BBX 16 16 0 -2
BITMAP
0410
7fff
0410
0000
0410
3f90
043e
7fd2
1112
24b2
041a
3f92
0422
7fc1
0000
0000
ENDCHAR
STARTCHAR ch-251
ENCODING 251
SWIDTH 1000 0
DWIDTH 16 0
BBX 16 16 0 -2
BITMAP
0410
7fff
0410
0000
0810
3e10
087c
7f14
2254
7f34
081c
7f15
0825
0847
0000
0000
ENDCHAR
STARTCHAR ch-252
ENCODING 252
SWIDTH 1000 0
DWIDTH 16 0
BBX 16 16 0 -2
BITMAP
0220
7fff
1f7c
0924
0514
0ba4
15e4
18dc
630f
0c60
038c
0c30
01c0
1e00
0000
0000
ENDCHAR
STARTCHAR ch-253
ENCODING 253
SWIDTH 1000 0
DWIDTH 16 0
BBX 16 16 0 -2
BITMAP
0410
7f7f
0410
1ffc
1084
1ffc
1084
1ffc
0888
3ffe
0888
7fff
1ffc
0080
0000
0000
ENDCHAR
STARTCHAR ch-254
ENCODING 254
SWIDTH 1000 0
DWIDTH 16 0
BBX 16 16 0 -2
BITMAP
0410
7f7f
0510
01f8
0100
3ffe
2492
2222
2142
2492
2142
2222
2492
3ffe
0000
0000
ENDCHAR
STARTCHAR ch-255
ENCODING 255
SWIDTH 1000 0
DWIDTH 16 0
BBX 16 16 0 -2
BITMAP
0220
7fff
0082
3fff
2402
4400
1bfe
2840
49fc
0904
09fc
0904
09fc
0904
0000
0000
ENDCHAR
STARTCHAR ch-256
ENCODING 256
SWIDTH 1000 0
DWIDTH 16 0
BBX 16 16 0 -2
BITMAP
0410
7f7f
0410
0000
043f
3f91
1112
1114
7fd2
0011
3f91
2095
2092
3f90
0000
0000
ENDCHAR
STARTCHAR ch-258
ENCODING 258
SWIDTH 1000 0
DWIDTH 16 0
BBX 16 16 0 -2
BITMAP
0410
7f7f
0410
1ffc
1084
1ffc
1084
1ffc
0420
0fc0
0084
7ffe
02a1
0490
0000
0000
ENDCHAR
STARTCHAR ch-262
ENCODING 262
SWIDTH 1000 0
DWIDTH 16 0
BBX 16 16 0 -2
BITMAP
0810
7e7e
0810
4020
31fc
0020
43fe
3144
027a
0889
1050
6020
2050
238e
0000
0000
ENDCHAR
STARTCHAR ch-263
ENCODING 263
SWIDTH 1000 0
DWIDTH 16 0
BBX 16 16 0 -2
BITMAP
0410
7fff
0410
0000
3f7f
2148
3f48
2148
3f7f
2128
2428
2229
2549
788f
0000
0000
ENDCHAR
STARTCHAR ch-264
ENCODING 264
SWIDTH 1000 0
DWIDTH 16 0
BBX 16 16 0 -2
BITMAP
0410
7fff
0410
7fff
0220
3ffe
2222
3ffe
0000
1ffc
0000
7fff
0888
1384
0000
0000
ENDCHAR
STARTCHAR ch-265
ENCODING 265
SWIDTH 1000 0
DWIDTH 16 0
BBX 16 16 0 -2
BITMAP
0410
7fff
0410
0080
7fff
0808
17f4
2412
0410
07f0
0c24
3418
0488
1f07
0000
0000
ENDCHAR
STARTCHAR ch-266
ENCODING 266
SWIDTH 1000 0
DWIDTH 16 0
BBX 16 16 0 -2
BITMAP
0410
7fff
0410
0000
10fe
1082
58fe
5482
50fe
1000
10fe
1010
29ff
4410
0000
0000
ENDCHAR
STARTCHAR ch-267
ENCODING 267
SWIDTH 1000 0
DWIDTH 16 0
BBX 16 16 0 -2
BITMAP
0410
7fff
0410
0000
4100
31df
1111
47d1
3111
1391
054a
1104
610a
2311
0000
0000
ENDCHAR
STARTCHAR ch-268
ENCODING 268
SWIDTH 1000 0
DWIDTH 16 0
BBX 16 16 0 -2
BITMAP
0220
7fff
0220
0410
7fd2
043f
3fa2
24d4
3f90
0c10
0e28
1524
6447
0482
0000
0000
ENDCHAR
STARTCHAR ch-269
ENCODING 269
SWIDTH 1000 0
DWIDTH 16 0
BBX 16 16 0 -2
BITMAP
0410
7fff
0410
0080
3fff
2210
3ffe
2212
3ffe
2810
2f1e
4810
0810
0f9f
0000
0000
ENDCHAR
STARTCHAR ch-270
ENCODING 270
SWIDTH 1000 0
DWIDTH 16 0
BBX 16 16 0 -2
BITMAP
0410
7fff
0410
0000
107c
7c44
0044
3884
0107
387c
0044
7c28
4410
7def
0000
0000
ENDCHAR
STARTCHAR ch-271
ENCODING 271
SWIDTH 1000 0
DWIDTH 16 0
BBX 16 16 0 -2
BITMAP
0410
7f7f
0410
0080
7fff
0410
3ffe
2222
2422
381e
23e2
2222
23e2
200e
0000
0000
ENDCHAR
STARTCHAR ch-273
ENCODING 273
SWIDTH 1000 0
DWIDTH 16 0
BBX 16 16 0 -2
BITMAP
0220
7fff
0220
1ffc
1224
1ffc
0090
1ffe
1080
1448
1250
2021
20d1
470f
0000
0000
ENDCHAR
STARTCHAR ch-274
ENCODING 274
SWIDTH 1000 0
DWIDTH 16 0
BBX 16 16 0 -2
BITMAP
0410
7fff
0410
1ffc
0084
7fff
0104
1ffc
0800
17fc
2404
07fc
2222
2222
0000
0000
ENDCHAR
STARTCHAR ch-275
ENCODING 275
SWIDTH 1000 0
DWIDTH 16 0
BBX 16 16 0 -2
BITMAP
0410
7fff
0ff8
0888
0ff8
0000
3ffe
2222
3ffe
0ff8
0220
01c0
0630
380e
0000
0000
ENDCHAR
STARTCHAR ch-276
ENCODING 276
SWIDTH 1000 0
DWIDTH 16 0
BBX 16 16 0 -2
BITMAP
0808
7f7f
0808
1fff
3ff9
4ff1
0811
0ff1
3ff9
2109
3ff9
2109
3ff9
001e
0000
0000
ENDCHAR
STARTCHAR ch-277
ENCODING 277
SWIDTH 1000 0
DWIDTH 16 0
BBX 16 16 0 -2
BITMAP
0410
7fff
0410
0000
1224
7fff
1224
73e7
0000
7fff
4081
1ffc
1084
108c
0000
0000
ENDCHAR
STARTCHAR ch-278
ENCODING 278
SWIDTH 1000 0
DWIDTH 16 0
BBX 16 16 0 -2
BITMAP
0410
3f7e
0490
00f8
1ffe
1102
17f4
11e0
17f8
1408
27f8
4408
07f8
1ffe
0000
0000
ENDCHAR
STARTCHAR ch-279
ENCODING 279
SWIDTH 1000 0
DWIDTH 16 0
BBX 16 16 0 -2
BITMAP
0220
0222
7fff
02a0
0040
1ffe
1110
1ffe
1110
1110
11f0
2492
4491
0891
0000
0000
ENDCHAR
STARTCHAR ch-280
ENCODING 280
SWIDTH 1000 0
DWIDTH 16 0
BBX 16 16 0 -2
BITMAP
0410
3f7e
0410
0220
07e0
1111
3f3f
0080
0360
3c9e
0120
0e48
0190
00e0
0000
0000
ENDCHAR
STARTCHAR ch-281
ENCODING 281
SWIDTH 1000 0
DWIDTH 16 0
BBX 16 16 0 -2
BITMAP
0410
7fff
0410
2080
11ff
7c00
20fe
3c12
2410
249c
2490
4490
0550
1a3f
0000
0000
ENDCHAR
STARTCHAR ch-282
ENCODING 282
SWIDTH 1000 0
DWIDTH 16 0
BBX 16 16 0 -2
BITMAP
0220
7fff
0220
3f84
2084
3f84
207f
3f84
2024
3f94
2a84
4a44
1214
0208
0000
0000
ENDCHAR
STARTCHAR ch-284
ENCODING 284
SWIDTH 1000 0
DWIDTH 16 0
BBX 16 16 0 -2
BITMAP
0410
7f7f
0410
0000
0410
7fd0
041f
1f24
0404
7fe4
0814
0f08
1114
2763
0000
0000
ENDCHAR
STARTCHAR ch-285
ENCODING 285
SWIDTH 1000 0
DWIDTH 16 0
BBX 16 16 0 -2
BITMAP
0410
7fff
0410
0000
7924
4924
48a8
7bfe
4820
78a8
4924
4a22
7c21
4820
0000
0000
ENDCHAR
STARTCHAR ch-286
ENCODING 286
SWIDTH 1000 0
DWIDTH 16 0
BBX 16 16 0 -2
BITMAP
0410
7f7f
0490
0ff8
3ffe
0888
0ff8
1ffc
1084
1ffc
0490
7fff
0080
1f7c
0000
0000
ENDCHAR
STARTCHAR ch-287
ENCODING 287
SWIDTH 1000 0
DWIDTH 16 0
BBX 16 16 0 -2
BITMAP
0220
7fff
0220
0882
08ff
7f00
1240
107e
1e50
1290
13ff
2228
2a47
4482
0000
0000
ENDCHAR
STARTCHAR ch-288
ENCODING 288
SWIDTH 1000 0
DWIDTH 16 0
BBX 16 16 0 -2
BITMAP
0410
3f7e
0410
0820
113e
2262
3c14
0808
1114
2163
3f08
0004
2a10
2a08
0000
0000
ENDCHAR
STARTCHAR ch-289
ENCODING 289
SWIDTH 1000 0
DWIDTH 16 0
BBX 16 16 0 -2
BITMAP
0222
7fff
0220
0b7c
0948
1630
3410
0be8
1007
2ffa
0490
0c8c
1084
0080
0000
0000
ENDCHAR
STARTCHAR ch-291
ENCODING 291
SWIDTH 1000 0
DWIDTH 16 0
BBX 16 16 0 -2
BITMAP
0408
7fff
0408
0220
123e
126a
3e94
0208
3eff
1224
1214
1204
2214
4208
0000
0000
ENDCHAR
STARTCHAR ch-292
ENCODING 292
SWIDTH 1000 0
DWIDTH 16 0
BBX 16 16 0 -2
BITMAP
0410
7fff
0410
0080
7fff
4001
5549
14c4
250a
07f8
0480
3884
1084
1ffc
0000
0000
ENDCHAR
STARTCHAR ch-293
ENCODING 293
SWIDTH 1000 0
DWIDTH 16 0
BBX 16 16 0 -2
BITMAP
0810
7e7e
0910
1ff8
1088
1528
1348
1488
1148
1ff8
4102
5089
5005
0ffc
0000
0000
ENDCHAR
STARTCHAR ch-294
ENCODING 294
SWIDTH 1000 0
DWIDTH 16 0
BBX 16 16 0 -2
BITMAP
0410
7f7f
0410
0ffc
1804
2ffc
4804
0ffc
0800
0ffc
0800
0fff
2491
2493
0000
0000
ENDCHAR
STARTCHAR ch-295
ENCODING 295
SWIDTH 1000 0
DWIDTH 16 0
BBX 16 16 0 -2
BITMAP
0410
7fff
0c18
7f7f
0808
7f7f
0808
7f7f
0808
1ffc
0004
7fff
0004
1ffc
0000
0000
ENDCHAR
STARTCHAR ch-296
ENCODING 296
SWIDTH 1000 0
DWIDTH 16 0
BBX 16 16 0 -2
BITMAP
0410
3f7e
0410
3ffe
22a2
2ffa
2082
2ffa
2222
27d2
2a4a
2212
23f2
3ffe
0000
0000
ENDCHAR
STARTCHAR ch-297
ENCODING 297
SWIDTH 1000 0
DWIDTH 16 0
BBX 16 16 0 -2
BITMAP
0410
3f7e
0490
7fff
4001
4ff9
0080
0ff8
0888
0ff8
0888
0ff8
0808
1004
0000
0000
ENDCHAR
STARTCHAR ch-298
ENCODING 298
SWIDTH 1000 0
DWIDTH 16 0
BBX 16 16 0 -2
BITMAP
0410
7fff
0410
0401
7fde
0410
3f90
249f
3f92
2492
3f92
0412
7fd2
0402
0000
0000
ENDCHAR
STARTCHAR ch-299
ENCODING 299
SWIDTH 1000 0
DWIDTH 16 0
BBX 16 16 0 -2
BITMAP
0410
7fff
1ffc
0080
04f8
0480
7fff
0800
0ffc
0800
0ffe
124a
224a
0006
0000
0000
ENDCHAR
STARTCHAR ch-300
ENCODING 300
SWIDTH 1000 0
DWIDTH 16 0
BBX 16 16 0 -2
BITMAP
0220
7fff
0220
0010
7eff
0420
0844
28fe
2e00
2854
2f54
7854
2094
0103
0000
0000
ENDCHAR
STARTCHAR ch-301
ENCODING 301
SWIDTH 1000 0
DWIDTH 16 0
BBX 16 16 0 -2
BITMAP
0410
7f7f
0410
7c38
2444
2892
317d
2808
247c
2400
2cfc
2020
2042
21ff
0000
0000
ENDCHAR
STARTCHAR ch-302
ENCODING 302
SWIDTH 1000 0
DWIDTH 16 0
BBX 16 16 0 -2
BITMAP
0410
7f7f
0410
7fff
4025
5ffd
4021
4fa5
48a9
4fb1
4051
5f8b
4007
7fff
0000
0000
ENDCHAR
STARTCHAR ch-303
ENCODING 303
SWIDTH 1000 0
DWIDTH 16 0
BBX 16 16 0 -2
BITMAP
0410
7fff
0410
0020
7bfe
5020
63fe
5222
4bfe
6a22
53fe
40a8
4124
4222
0000
0000
ENDCHAR
STARTCHAR ch-304
ENCODING 304
SWIDTH 1000 0
DWIDTH 16 0
BBX 16 16 0 -2
BITMAP
0410
3f7e
0430
1fc0
1ffc
1004
1ffc
13f8
1208
13f8
17fc
1444
27fd
07ff
0000
0000
ENDCHAR
STARTCHAR ch-305
ENCODING 305
SWIDTH 1000 0
DWIDTH 16 0
BBX 16 16 0 -2
BITMAP
0410
7fff
0410
0000
143c
0824
3625
0067
0900
7f3e
2a22
2a14
4908
0877
0000
0000
ENDCHAR
STARTCHAR ch-315
ENCODING 315
SWIDTH 1000 0
DWIDTH 16 0
BBX 16 16 0 -2
BITMAP
0220
7fff
0080
3fff
2021
403a
1f20
007c
7f84
0a28
0a10
126d
2201
41ff
0000
0000
ENDCHAR
STARTCHAR ch-317
ENCODING 317
SWIDTH 1000 0
DWIDTH 16 0
BBX 16 16 0 -2
BITMAP
0220
7fff
0220
2490
1510
061f
3fa2
24d2
2e92
3594
2488
2494
20a3
21c2
0000
0000
ENDCHAR
STARTCHAR ch-318
ENCODING 318
SWIDTH 1000 0
DWIDTH 16 0
BBX 16 16 0 -2
BITMAP
0410
3f7e
0410
0220
3c3e
0852
7f12
2a22
49cc
0080
7fff
0490
0888
0080
0000
0000
ENDCHAR
STARTCHAR ch-320
ENCODING 320
SWIDTH 1000 0
DWIDTH 16 0
BBX 16 16 0 -2
BITMAP
0410
7fff
0410
0000
0808
7f7f
0808
7f7f
4949
4949
1c1c
2a2a
4949
1818
0000
0000
ENDCHAR
STARTCHAR ch-321
ENCODING 321
SWIDTH 1000 0
DWIDTH 16 0
BBX 16 16 0 -2
BITMAP
0410
7f7f
0410
1ffc
0ffc
0004
1ffc
7f3f
0821
7f3f
0008
7fff
0808
0078
0000
0000
ENDCHAR
STARTCHAR ch-323
ENCODING 323
SWIDTH 1000 0
DWIDTH 16 0
BBX 16 16 0 -2
BITMAP
0220
7fff
0220
1ffc
0490
02a2
7fff
0490
188c
6ffb
0888
0ff8
0888
0ff8
0000
0000
ENDCHAR
STARTCHAR ch-324
ENCODING 324
SWIDTH 1000 0
DWIDTH 16 0
BBX 16 16 0 -2
BITMAP
0410
7fff
0410
7f7f
4141
7f7f
4141
7f7f
4001
4a89
4a45
4a11
41f1
4003
0000
0000
ENDCHAR
STARTCHAR ch-325
ENCODING 325
SWIDTH 1000 0
DWIDTH 16 0
BBX 16 16 0 -2
BITMAP
0410
7fff
0410
33fe
1222
43fe
3222
13fe
0020
17ff
6425
25fd
2405
2401
0000
0000
ENDCHAR
STARTCHAR ch-326
ENCODING 326
SWIDTH 1000 0
DWIDTH 16 0
BBX 16 16 0 -2
BITMAP
0410
3f7e
0410
0012
3fff
2f90
2890
2f90
2891
2f92
2894
2f89
4515
08a3
0000
0000
ENDCHAR
STARTCHAR ch-327
ENCODING 327
SWIDTH 1000 0
DWIDTH 16 0
BBX 16 16 0 -2
BITMAP
0410
7f7f
0410
3e3e
2222
3e3e
1ffc
1084
1ffc
1084
1ffc
0080
7fff
0080
0000
0000
ENDCHAR
STARTCHAR ch-328
ENCODING 328
SWIDTH 1000 0
DWIDTH 16 0
BBX 16 16 0 -2
BITMAP
0808
7f7f
0808
7fff
0410
3ffe
2412
3ffe
1ffc
17f4
1ffc
0080
7fff
0080
0000
0000
ENDCHAR
STARTCHAR ch-329
ENCODING 329
SWIDTH 1000 0
DWIDTH 16 0
BBX 16 16 0 -2
BITMAP
0410
7fff
0490
0444
0ffe
0840
1ffc
2840
0ffc
0840
0ffe
1224
1113
2001
0000
0000
ENDCHAR
STARTCHAR ch-330
ENCODING 330
SWIDTH 1000 0
DWIDTH 16 0
BBX 16 16 0 -2
BITMAP
0410
7fff
0410
0100
1484
1492
2412
03f0
0000
2408
5060
5366
12a5
1e3c
0000
0000
ENDCHAR
STARTCHAR ch-333
ENCODING 333
SWIDTH 1000 0
DWIDTH 16 0
BBX 16 16 0 -2
BITMAP
0410
7fff
0410
4070
3088
11fc
4603
31e2
112a
01ea
112a
61ea
2122
2266
0000
0000
ENDCHAR
STARTCHAR ch-334
ENCODING 334
SWIDTH 1000 0
DWIDTH 16 0
BBX 16 16 0 -2
BITMAP
0410
7f7f
0418
0ff0
0080
7fff
0220
07f0
0c18
17f4
3ffe
57f5
1414
17f4
0000
0000
ENDCHAR
STARTCHAR ch-337
ENCODING 337
SWIDTH 1000 0
DWIDTH 16 0
BBX 16 16 0 -2
BITMAP
0410
7f7f
0410
7f7f
4141
7f7f
4141
7f7f
47f1
4411
47f1
4411
47f1
4837
0000
0000
ENDCHAR
STARTCHAR ch-339
ENCODING 339
SWIDTH 1000 0
DWIDTH 16 0
BBX 16 16 0 -2
BITMAP
0410
7fff
0410
7fff
0080
7fff
4891
4489
0ff8
0000
3ffe
0200
0408
1ffc
0000
0000
ENDCHAR
STARTCHAR ch-340
ENCODING 340
SWIDTH 1000 0
DWIDTH 16 0
BBX 16 16 0 -2
BITMAP
0410
7fff
0410
047f
3fa1
0421
7fe6
1120
7fef
0429
3fa9
042a
0424
044b
0000
0000
ENDCHAR
STARTCHAR ch-341
ENCODING 341
SWIDTH 1000 0
DWIDTH 16 0
BBX 16 16 0 -2
BITMAP
0808
7fff
0808
0042
4424
28ff
1024
28ff
0ca5
14a5
24c3
04bd
1481
08ff
0000
0000
ENDCHAR
STARTCHAR ch-342
ENCODING 342
SWIDTH 1000 0
DWIDTH 16 0
BBX 16 16 0 -2
BITMAP
0220
7fff
09fe
2500
11fc
0504
09fc
3100
11fe
1080
7fff
0c98
3086
0080
0000
0000
ENDCHAR
STARTCHAR ch-343
ENCODING 343
SWIDTH 1000 0
DWIDTH 16 0
BBX 16 16 0 -2
BITMAP
0410
7ffe
0410
3e40
227e
22a4
3e18
0824
08c3
2e7e
2842
2a42
3c7e
0042
0000
0000
ENDCHAR
STARTCHAR ch-344
ENCODING 344
SWIDTH 1000 0
DWIDTH 16 0
BBX 16 16 0 -2
BITMAP
0410
7f7f
0490
1ffc
0080
3ffe
0808
3e3e
0808
3e3e
7fff
0410
0811
301f
0000
0000
ENDCHAR
STARTCHAR ch-345
ENCODING 345
SWIDTH 1000 0
DWIDTH 16 0
BBX 16 16 0 -2
BITMAP
0410
7fff
0490
3ffe
0ff8
0888
0ff8
0888
0ff8
0084
3ffe
288a
2809
47f9
0000
0000
ENDCHAR
STARTCHAR ch-347
ENCODING 347
SWIDTH 1000 0
DWIDTH 16 0
BBX 16 16 0 -2
BITMAP
0410
7fff
0410
0241
3c22
087f
7f09
087f
1c48
2a7f
4919
0829
084b
0808
0000
0000
ENDCHAR
STARTCHAR ch-349
ENCODING 349
SWIDTH 1000 0
DWIDTH 16 0
BBX 16 16 0 -2
BITMAP
0410
7f7f
0410
1040
10fc
2508
7c10
11fc
2524
7d24
11fc
5500
5501
11ff
0000
0000
ENDCHAR
STARTCHAR ch-350
ENCODING 350
SWIDTH 1000 0
DWIDTH 16 0
BBX 16 16 0 -2
BITMAP
0810
7e7e
0ff0
0810
0ff0
0ff0
7ffe
22fc
3e84
3e48
2230
7e30
0248
0286
0000
0000
ENDCHAR
STARTCHAR ch-352
ENCODING 352
SWIDTH 1000 0
DWIDTH 16 0
BBX 16 16 0 -2
BITMAP
0808
7f7f
0808
1200
7f9e
1212
0c1e
7300
0220
0fc0
0082
3ffe
0888
1084
0000
0000
ENDCHAR
STARTCHAR ch-353
ENCODING 353
SWIDTH 1000 0
DWIDTH 16 0
BBX 16 16 0 -2
BITMAP
0410
7fff
0490
07f0
1084
7fff
1004
0ff8
0808
0ff8
0ff8
0808
0ff8
3006
0000
0000
ENDCHAR
STARTCHAR ch-354
ENCODING 354
SWIDTH 1000 0
DWIDTH 16 0
BBX 16 16 0 -2
BITMAP
0410
7f7f
0490
1ffc
1084
1ffc
7fff
1ffc
1004
1ffc
1ffc
1004
1ffc
2002
0000
0000
ENDCHAR
STARTCHAR ch-355
ENCODING 355
SWIDTH 1000 0
DWIDTH 16 0
BBX 16 16 0 -2
BITMAP
0410
7f7f
0410
0008
3ff2
1084
7fff
4809
0f7e
1928
2628
04ff
1808
0008
0000
0000
ENDCHAR
STARTCHAR ch-356
ENCODING 356
SWIDTH 1000 0
DWIDTH 16 0
BBX 16 16 0 -2
BITMAP
0220
7fff
7fa8
18be
2548
4b08
12be
2688
0a88
12ff
2240
4220
1418
0807
0000
0000
ENDCHAR
STARTCHAR ch-357
ENCODING 357
SWIDTH 1000 0
DWIDTH 16 0
BBX 16 16 0 -2
BITMAP
0410
7fff
0410
0000
0024
7f44
24ff
2544
7f7f
0c44
147f
6444
047f
1c40
0000
0000
ENDCHAR
STARTCHAR ch-358
ENCODING 358
SWIDTH 1000 0
DWIDTH 16 0
BBX 16 16 0 -2
BITMAP
0808
7fff
0808
41ff
3020
10fe
4082
30fe
0082
08fe
1082
60fe
2044
2082
0000
0000
ENDCHAR
STARTCHAR ch-359
ENCODING 359
SWIDTH 1000 0
DWIDTH 16 0
BBX 16 16 0 -2
BITMAP
0808
7f7f
0848
08fe
1100
247e
4842
187a
287e
0820
087e
08a4
0818
08e7
0000
0000
ENDCHAR
STARTCHAR ch-360
ENCODING 360
SWIDTH 1000 0
DWIDTH 16 0
BBX 16 16 0 -2
BITMAP
0220
7fff
1ffe
1450
1290
1fdf
1121
154a
1548
17d4
2154
2114
4223
0442
0000
0000
ENDCHAR
STARTCHAR ch-361
ENCODING 361
SWIDTH 1000 0
DWIDTH 16 0
BBX 16 16 0 -2
BITMAP
0808
3f7e
0410
41fc
31fc
0104
41fc
33fe
0900
13fe
644a
2092
2122
204c
0000
0000
ENDCHAR
STARTCHAR ch-362
ENCODING 362
SWIDTH 1000 0
DWIDTH 16 0
BBX 16 16 0 -2
BITMAP
1008
7ffe
0810
1000
3ffc
5248
1248
3ffc
1248
1248
7ffe
2444
4444
4442
0000
0000
ENDCHAR
STARTCHAR ch-363
ENCODING 363
SWIDTH 1000 0
DWIDTH 16 0
BBX 16 16 0 -2
BITMAP
0410
7f7f
0490
3ffe
0410
7fff
1ffc
1084
1ffc
1084
1ffc
0080
1ffc
7fff
0000
0000
ENDCHAR
STARTCHAR ch-364
ENCODING 364
SWIDTH 1000 0
DWIDTH 16 0
BBX 16 16 0 -2
BITMAP
0410
7f7f
0410
0000
1010
2222
7c7c
0808
1111
7f7f
0808
4949
4949
0808
0000
0000
ENDCHAR
STARTCHAR ch-365
ENCODING 365
SWIDTH 1000 0
DWIDTH 16 0
BBX 16 16 0 -2
BITMAP
0410
7fff
0410
0080
1ffc
7fff
0084
1ffc
2492
3c9e
3ffe
3c9e
2492
4492
0000
0000
ENDCHAR
STARTCHAR ch-366
ENCODING 366
SWIDTH 1000 0
DWIDTH 16 0
BBX 16 16 0 -2
BITMAP
0410
7f7f
0410
0000
101c
3004
1e3c
1004
1ffc
0800
1fff
3249
1249
0006
0000
0000
ENDCHAR
STARTCHAR ch-369
ENCODING 369
SWIDTH 1000 0
DWIDTH 16 0
BBX 16 16 0 -2
BITMAP
0410
7fff
0410
0000
0892
7092
1054
7cfe
1082
38fe
5482
10fe
1082
1082
0000
0000
ENDCHAR
STARTCHAR ch-373
ENCODING 373
SWIDTH 1000 0
DWIDTH 16 0
BBX 16 16 0 -2
BITMAP
0410
7fff
0410
1028
1054
1e92
237d
5244
0a7c
0444
087c
104a
2054
0062
0000
0000
ENDCHAR
STARTCHAR ch-374
ENCODING 374
SWIDTH 1000 0
DWIDTH 16 0
BBX 16 16 0 -2
BITMAP
0410
7f7f
0410
1ffc
7fff
4889
4491
0be8
0410
09c8
7007
07f0
0120
00c0
0000
0000
ENDCHAR
STARTCHAR ch-375
ENCODING 375
SWIDTH 1000 0
DWIDTH 16 0
BBX 16 16 0 -2
BITMAP
0410
7fff
0410
0000
3e7e
0210
047e
7f42
0a7e
087e
0842
087e
1824
0842
0000
0000
ENDCHAR
STARTCHAR ch-376
ENCODING 376
SWIDTH 1000 0
DWIDTH 16 0
BBX 16 16 0 -2
BITMAP
0410
7fff
0410
03df
2241
13df
0200
73df
1211
13ca
1204
121b
6800
07ff
0000
0000
ENDCHAR
STARTCHAR ch-377
ENCODING 377
SWIDTH 1000 0
DWIDTH 16 0
BBX 16 16 0 -2
BITMAP
0410
7fff
0410
0080
7fff
0a48
1244
3cff
0948
127e
3e48
027e
0448
387f
0000
0000
ENDCHAR
STARTCHAR ch-378
ENCODING 378
SWIDTH 1000 0
DWIDTH 16 0
BBX 16 16 0 -2
BITMAP
0220
7fff
1f08
1124
1f24
7fff
1120
1f24
1124
1f18
1110
7fa9
0145
0103
0000
0000
ENDCHAR
STARTCHAR ch-379
ENCODING 379
SWIDTH 1000 0
DWIDTH 16 0
BBX 16 16 0 -2
BITMAP
0220
7fff
0220
1f48
1048
1efe
1048
1e48
1048
7fff
1048
2244
3e82
0102
0000
0000
ENDCHAR
STARTCHAR ch-380
ENCODING 380
SWIDTH 1000 0
DWIDTH 16 0
BBX 16 16 0 -2
BITMAP
0410
7fff
0410
7f7e
2012
3eff
2012
3e7e
2010
7eff
1010
22fe
7e10
0210
0000
0000
ENDCHAR
STARTCHAR ch-382
ENCODING 382
SWIDTH 1000 0
DWIDTH 16 0
BBX 16 16 0 -2
BITMAP
0220
3ffe
0220
1ffc
0080
3fff
2081
4eba
0eb8
0ff8
0888
0ff8
0888
0ff8
0000
0000
ENDCHAR
STARTCHAR ch-384
ENCODING 384
SWIDTH 1000 0
DWIDTH 16 0
BBX 16 16 0 -2
BITMAP
0410
7fff
0410
41fc
3124
1124
4154
31fc
1000
03fe
1252
6252
2252
27ff
0000
0000
ENDCHAR
STARTCHAR ch-385
ENCODING 385
SWIDTH 1000 0
DWIDTH 16 0
BBX 16 16 0 -2
BITMAP
0410
7f7f
0410
0800
1ffc
3014
57e4
12a4
1ffc
12a4
1494
7fff
0410
380e
0000
0000
ENDCHAR
STARTCHAR ch-386
ENCODING 386
SWIDTH 1000 0
DWIDTH 16 0
BBX 16 16 0 -2
BITMAP
0410
7f7f
1810
3f20
6120
3f3f
2124
3f44
0804
7f24
1014
3f08
4114
0763
0000
0000
ENDCHAR
STARTCHAR ch-387
ENCODING 387
SWIDTH 1000 0
DWIDTH 16 0
BBX 16 16 0 -2
BITMAP
0410
7fff
0410
0020
63ff
20fc
0084
60fc
2000
0bff
1279
6249
2279
2203
0000
0000
ENDCHAR
STARTCHAR ch-388
ENCODING 388
SWIDTH 1000 0
DWIDTH 16 0
BBX 16 16 0 -2
BITMAP
0410
7fff
2224
13fe
11fc
4524
25fc
0924
09fc
1124
7008
17ff
1108
1018
0000
0000
ENDCHAR
STARTCHAR ch-389
ENCODING 389
SWIDTH 1000 0
DWIDTH 16 0
BBX 16 16 0 -2
BITMAP
1010
7fff
1010
29fe
297c
2900
7dff
2954
2948
2967
2904
12ff
2844
442c
0000
0000
ENDCHAR
STARTCHAR ch-390
ENCODING 390
SWIDTH 1000 0
DWIDTH 16 0
BBX 16 16 0 -2
BITMAP
0410
7f7f
0410
3ff0
0888
7fff
5495
27f0
0200
07f0
0a20
11c0
0220
3c1e
0000
0000
ENDCHAR
STARTCHAR ch-391
ENCODING 391
SWIDTH 1000 0
DWIDTH 16 0
BBX 16 16 0 -2
BITMAP
0220
7fff
1110
1550
255f
47e2
17d2
3014
5394
1288
12c8
1494
1423
1842
0000
0000
ENDCHAR
STARTCHAR ch-392
ENCODING 392
SWIDTH 1000 0
DWIDTH 16 0
BBX 16 16 0 -2
BITMAP
0410
7f7f
07e0
0410
0be8
1004
3ffe
5495
1ffc
0ff8
0808
0ff8
0808
0ff8
0000
0000
ENDCHAR
STARTCHAR ch-393
ENCODING 393
SWIDTH 1000 0
DWIDTH 16 0
BBX 16 16 0 -2
BITMAP
0410
7f7f
0490
08fc
0880
7fff
0014
3fff
2010
3f92
2a94
3329
4245
1c03
0000
0000
ENDCHAR
STARTCHAR ch-394
ENCODING 394
SWIDTH 1000 0
DWIDTH 16 0
BBX 16 16 0 -2
BITMAP
0410
7fff
0410
1001
3f81
4109
3f89
2489
3f89
2489
3f81
4a41
4a45
4a42
0000
0000
ENDCHAR
STARTCHAR ch-395
ENCODING 395
SWIDTH 1000 0
DWIDTH 16 0
BBX 16 16 0 -2
BITMAP
0410
7f7f
0450
3e7e
0092
3f28
0044
1ffc
1004
1ffc
1ffc
1004
1ffc
7007
0000
0000
ENDCHAR
STARTCHAR ch-396
ENCODING 396
SWIDTH 1000 0
DWIDTH 16 0
BBX 16 16 0 -2
BITMAP
0410
7fff
0410
0100
23ff
4a52
7bd4
1254
2bd2
7a11
0b51
1295
2352
4210
0000
0000
ENDCHAR
STARTCHAR ch-397
ENCODING 397
SWIDTH 1000 0
DWIDTH 16 0
BBX 16 16 0 -2
BITMAP
0808
7f7f
0888
3f00
1290
3f90
0910
7fd0
4950
5f50
5f51
4a51
4451
4a5f
0000
0000
ENDCHAR
STARTCHAR ch-398
ENCODING 398
SWIDTH 1000 0
DWIDTH 16 0
BBX 16 16 0 -2
BITMAP
0410
7f7f
0410
3ffe
2222
3ffe
0000
7fff
4449
49fd
1840
2850
0822
085c
0000
0000
ENDCHAR
STARTCHAR ch-399
ENCODING 399
SWIDTH 1000 0
DWIDTH 16 0
BBX 16 16 0 -2
BITMAP
0220
7fff
02a0
1ffc
0410
7fff
0ff8
0808
0ff8
0808
0ff8
1444
1412
23f2
0000
0000
ENDCHAR
STARTCHAR ch-400
ENCODING 400
SWIDTH 1000 0
DWIDTH 16 0
BBX 16 16 0 -2
BITMAP
0410
7fff
0410
0820
71fc
1020
13fe
7888
1147
12fc
3888
5548
1030
13cf
0000
0000
ENDCHAR
STARTCHAR ch-401
ENCODING 401
SWIDTH 1000 0
DWIDTH 16 0
BBX 16 16 0 -2
BITMAP
0808
7f7f
0808
7fff
1ffc
17f4
1084
1ffc
7fff
1ffc
17f4
1084
1ffc
7fff
0000
0000
ENDCHAR
STARTCHAR ch-404
ENCODING 404
SWIDTH 1000 0
DWIDTH 16 0
BBX 16 16 0 -2
BITMAP
0808
7f7f
0888
3ffe
0888
1494
7fff
1ffc
1004
17f4
1414
17f4
1004
1ffc
0000
0000
ENDCHAR
STARTCHAR ch-405
ENCODING 405
SWIDTH 1000 0
DWIDTH 16 0
BBX 16 16 0 -2
BITMAP
0410
7fff
0450
3fff
2104
2fff
2110
27fe
2112
2fff
2112
27fe
2318
4514
0000
0000
ENDCHAR
STARTCHAR ch-406
ENCODING 406
SWIDTH 1000 0
DWIDTH 16 0
BBX 16 16 0 -2
BITMAP
0410
7fff
0410
20f8
1088
00b8
78a8
13fe
2202
12fa
0a8a
0afa
1a02
27ff
0000
0000
ENDCHAR
STARTCHAR ch-408
ENCODING 408
SWIDTH 1000 0
DWIDTH 16 0
BBX 16 16 0 -2
BITMAP
0410
7fff
0430
21fc
1020
07ff
7104
13fe
2020
41fc
2020
23fe
2020
5fff
0000
0000
ENDCHAR
STARTCHAR ch-409
ENCODING 409
SWIDTH 1000 0
DWIDTH 16 0
BBX 16 16 0 -2
BITMAP
0410
7f7f
0410
0000
2024
3e44
48ff
0944
7f7f
0844
087f
1444
2244
417f
0000
0000
ENDCHAR
STARTCHAR ch-410
ENCODING 410
SWIDTH 1000 0
DWIDTH 16 0
BBX 16 16 0 -2
BITMAP
0410
7fff
0410
7e7e
1042
107e
1e42
127e
2200
54ff
0840
10ff
2129
4052
0000
0000
ENDCHAR
STARTCHAR ch-411
ENCODING 411
SWIDTH 1000 0
DWIDTH 16 0
BBX 16 16 0 -2
BITMAP
0410
7fff
0410
1020
3e10
22fe
2244
3e28
21ff
3e10
22fe
2210
3e10
2010
0000
0000
ENDCHAR
STARTCHAR ch-412
ENCODING 412
SWIDTH 1000 0
DWIDTH 16 0
BBX 16 16 0 -2
BITMAP
0220
7fff
0220
1f10
11fe
1144
1f28
10ff
1010
1f10
29fe
4910
0f10
0810
0000
0000
ENDCHAR
STARTCHAR ch-413
ENCODING 413
SWIDTH 1000 0
DWIDTH 16 0
BBX 16 16 0 -2
BITMAP
0410
7f7f
0410
0ff8
1010
3fff
2444
27fc
3c07
27fc
27fc
47fc
0404
07fc
0000
0000
ENDCHAR
STARTCHAR ch-414
ENCODING 414
SWIDTH 1000 0
DWIDTH 16 0
BBX 16 16 0 -2
BITMAP
0410
7fff
0410
001c
7f22
10c9
1e7e
2242
527e
0c42
087e
104a
2054
4063
0000
0000
ENDCHAR
STARTCHAR ch-415
ENCODING 415
SWIDTH 1000 0
DWIDTH 16 0
BBX 16 16 0 -2
BITMAP
0808
7f7f
0808
01c0
0220
0410
0808
17f4
2002
0f78
0948
0f78
0a28
31c6
0000
0000
ENDCHAR
STARTCHAR ch-416
ENCODING 416
SWIDTH 1000 0
DWIDTH 16 0
BBX 16 16 0 -2
BITMAP
0410
7fff
0410
007e
0810
497e
2a42
087e
0842
087e
0842
147e
2224
4142
0000
0000
ENDCHAR
STARTCHAR ch-417
ENCODING 417
SWIDTH 1000 0
DWIDTH 16 0
BBX 16 16 0 -2
BITMAP
0410
7f7f
0410
0ff8
0808
0ff8
0ff8
0808
2ffa
2222
3e3e
0220
7e3f
2222
0000
0000
ENDCHAR
STARTCHAR ch-418
ENCODING 418
SWIDTH 1000 0
DWIDTH 16 0
BBX 16 16 0 -2
BITMAP
0410
7f7f
0410
1000
3e7e
4412
7f22
494c
7f04
497e
7f24
41ff
4104
4304
0000
0000
ENDCHAR
STARTCHAR ch-419
ENCODING 419
SWIDTH 1000 0
DWIDTH 16 0
BBX 16 16 0 -2
BITMAP
0410
7f7f
0410
0000
0408
7fc8
047f
3f88
003e
3fa2
2094
3f88
1114
7fe2
0000
0000
ENDCHAR
STARTCHAR ch-420
ENCODING 420
SWIDTH 1000 0
DWIDTH 16 0
BBX 16 16 0 -2
BITMAP
0210
7fff
0210
0000
3f28
08ee
0e28
12ee
2a28
0428
04ee
0828
1028
21ff
0000
0000
ENDCHAR
STARTCHAR ch-422
ENCODING 422
SWIDTH 1000 0
DWIDTH 16 0
BBX 16 16 0 -2
BITMAP
0808
7f7f
0888
3fff
2110
2ffe
2112
2ffe
2400
27f8
27ff
2a49
5249
0002
0000
0000
ENDCHAR
STARTCHAR ch-423
ENCODING 423
SWIDTH 1000 0
DWIDTH 16 0
BBX 16 16 0 -2
BITMAP
0410
3f7e
0490
1ffc
07f0
0410
07f0
3ffe
2002
2ffa
0740
0d78
0244
3c7c
0000
0000
ENDCHAR
STARTCHAR ch-424
ENCODING 424
SWIDTH 1000 0
DWIDTH 16 0
BBX 16 16 0 -2
BITMAP
0220
7fff
1ffc
1224
1ffc
3fff
2001
4ffa
0440
0f40
197c
2640
0442
383e
0000
0000
ENDCHAR
STARTCHAR ch-425
ENCODING 425
SWIDTH 1000 0
DWIDTH 16 0
BBX 16 16 0 -2
BITMAP
0808
7f7f
0808
7c10
45ff
4882
5044
49ff
4548
457e
6988
517f
4108
42ff
0000
0000
ENDCHAR
STARTCHAR ch-426
ENCODING 426
SWIDTH 1000 0
DWIDTH 16 0
BBX 16 16 0 -2
BITMAP
0220
7fff
0a20
0406
3fb8
1120
0a20
7fbf
0424
3fa4
24c4
4444
0484
0404
0000
0000
ENDCHAR
STARTCHAR ch-431
ENCODING 431
SWIDTH 1000 0
DWIDTH 16 0
BBX 16 16 0 -2
BITMAP
0220
7fff
1ffc
1224
1ffc
0110
1ff8
7fff
0600
0ffc
1804
6ffc
0804
0ffc
0000
0000
ENDCHAR
STARTCHAR ch-432
ENCODING 432
SWIDTH 1000 0
DWIDTH 16 0
BBX 16 16 0 -2
BITMAP
0808
7f7f
0818
0fe0
0080
7fff
1ffc
1494
1ffc
0080
1ffc
0080
7fff
4411
0000
0000
ENDCHAR
STARTCHAR ch-433
ENCODING 433
SWIDTH 1000 0
DWIDTH 16 0
BBX 16 16 0 -2
BITMAP
0410
7f7f
0410
0000
4a44
2a84
7fff
2084
1104
3fa4
0414
3f84
0404
7fdc
0000
0000
ENDCHAR
STARTCHAR ch-435
ENCODING 435
SWIDTH 1000 0
DWIDTH 16 0
BBX 16 16 0 -2
BITMAP
0410
7fff
0410
4020
21fc
0020
7bfe
10f8
2088
40f8
20c4
1158
2064
5fff
0000
0000
ENDCHAR
STARTCHAR ch-436
ENCODING 436
SWIDTH 1000 0
DWIDTH 16 0
BBX 16 16 0 -2
BITMAP
0410
7f7f
0490
7fff
4a89
0a54
13f0
0ff8
0948
7fff
0000
3ffe
0080
0380
0000
0000
ENDCHAR
STARTCHAR ch-437
ENCODING 437
SWIDTH 1000 0
DWIDTH 16 0
BBX 16 16 0 -2
BITMAP
0410
7f7f
0490
3ffe
0080
1ffc
3ffe
0002
1ffe
0080
7fff
3eff
2224
3e0c
0000
0000
ENDCHAR
STARTCHAR ch-438
ENCODING 438
SWIDTH 1000 0
DWIDTH 16 0
BBX 16 16 0 -2
BITMAP
0410
7fff
0410
0000
08fe
1a92
74fe
0a92
36fe
0a10
36fe
0a10
3210
0dff
0000
0000
ENDCHAR
STARTCHAR ch-439
ENCODING 439
SWIDTH 1000 0
DWIDTH 16 0
BBX 16 16 0 -2
BITMAP
0410
7f7f
0410
3ffe
0080
7fff
4891
4489
3ffe
0800
3ffe
2222
2222
200e
0000
0000
ENDCHAR
STARTCHAR ch-440
ENCODING 440
SWIDTH 1000 0
DWIDTH 16 0
BBX 16 16 0 -2
BITMAP
0410
7fff
0410
43fe
3050
13fe
4252
33fe
1000
05fc
0800
37ff
10a8
1326
0000
0000
ENDCHAR
STARTCHAR ch-441
ENCODING 441
SWIDTH 1000 0
DWIDTH 16 0
BBX 16 16 0 -2
BITMAP
0808
7ebf
0be8
03e0
0ff8
0808
0ff8
7fff
4ff9
0210
0ff0
0080
0ff8
3ffe
0000
0000
ENDCHAR
STARTCHAR ch-442
ENCODING 442
SWIDTH 1000 0
DWIDTH 16 0
BBX 16 16 0 -2
BITMAP
0808
7f7f
0888
7fff
0142
1ebc
12a4
2cb2
1004
1ffc
1004
1ffc
1004
2004
0000
0000
ENDCHAR
STARTCHAR ch-445
ENCODING 445
SWIDTH 1000 0
DWIDTH 16 0
BBX 16 16 0 -2
BITMAP
0410
7fff
0410
0000
3fbf
0a10
3f9e
2a92
2a92
3f9e
0412
3f9a
0412
7fe3
0000
0000
ENDCHAR
STARTCHAR ch-446
ENCODING 446
SWIDTH 1000 0
DWIDTH 16 0
BBX 16 16 0 -2
BITMAP
0410
7f7f
0410
7fff
0490
0888
3ffe
2aaa
2492
2aaa
2082
2aaa
2492
2aaa
0000
0000
ENDCHAR
STARTCHAR ch-447
ENCODING 447
SWIDTH 1000 0
DWIDTH 16 0
BBX 16 16 0 -2
BITMAP
0410
7f7f
0410
207e
3e14
2008
3f7f
2009
3e08
484e
7f48
1468
2298
410f
0000
0000
ENDCHAR
STARTCHAR ch-448
ENCODING 448
SWIDTH 1000 0
DWIDTH 16 0
BBX 16 16 0 -2
BITMAP
0808
7f7f
0808
2492
1554
0410
0a28
1144
7fff
4081
1084
0948
0220
1c1c
0000
0000
ENDCHAR
STARTCHAR ch-450
ENCODING 450
SWIDTH 1000 0
DWIDTH 16 0
BBX 16 16 0 -2
BITMAP
0410
7f7f
0410
7f80
217f
3f01
2122
3f14
2108
7f14
01a2
0988
1494
22a2
0000
0000
ENDCHAR
STARTCHAR ch-451
ENCODING 451
SWIDTH 1000 0
DWIDTH 16 0
BBX 16 16 0 -2
BITMAP
0410
7f7f
0410
0820
7fa0
003f
3f41
2189
3f09
7f88
4088
5e94
52a2
5ec1
0000
0000
ENDCHAR
STARTCHAR ch-452
ENCODING 452
SWIDTH 1000 0
DWIDTH 16 0
BBX 16 16 0 -2
BITMAP
0808
7f7f
0c18
1ffc
0410
07f0
07f0
0410
3ffe
0928
13c4
208a
4ff9
0490
0000
0000
ENDCHAR
STARTCHAR ch-453
ENCODING 453
SWIDTH 1000 0
DWIDTH 16 0
BBX 16 16 0 -2
BITMAP
0808
7f7f
0808
3ffe
2222
3ffe
0800
7f02
3e22
3e22
0022
3e22
2202
3e0e
0000
0000
ENDCHAR
STARTCHAR ch-454
ENCODING 454
SWIDTH 1000 0
DWIDTH 16 0
BBX 16 16 0 -2
BITMAP
0808
7f7f
0888
7fff
4221
4ff9
1ffc
3ffe
1014
27e2
4ff9
1ffc
0080
0380
0000
0000
ENDCHAR
STARTCHAR ch-455
ENCODING 455
SWIDTH 1000 0
DWIDTH 16 0
BBX 16 16 0 -2
BITMAP
0410
7fff
0410
111c
31c4
1d1c
11c4
1144
1d5c
1144
1284
7fff
0808
3006
0000
0000
ENDCHAR
STARTCHAR ch-456
ENCODING 456
SWIDTH 1000 0
DWIDTH 16 0
BBX 16 16 0 -2
BITMAP
0410
7f7f
0410
0002
7dec
4429
454a
7c84
457e
4611
7dff
4428
4444
7c82
0000
0000
ENDCHAR
STARTCHAR ch-457
ENCODING 457
SWIDTH 1000 0
DWIDTH 16 0
BBX 16 16 0 -2
BITMAP
0220
7fff
0220
0848
3ffe
0848
3e48
09ff
3e00
08fc
1a84
2afc
4884
08fc
0000
0000
ENDCHAR
STARTCHAR ch-459
ENCODING 459
SWIDTH 1000 0
DWIDTH 16 0
BBX 16 16 0 -2
BITMAP
0410
7f7f
0410
3f7e
0912
050a
0420
0ffe
1820
2ffe
0820
0ffe
0820
0ffe
0000
0000
ENDCHAR
STARTCHAR ch-461
ENCODING 461
SWIDTH 1000 0
DWIDTH 16 0
BBX 16 16 0 -2
BITMAP
0808
7f7f
0808
7f40
487f
7f40
4180
7f3e
4800
7f00
1ffc
1224
1224
7fff
0000
0000
ENDCHAR
STARTCHAR ch-462
ENCODING 462
SWIDTH 1000 0
DWIDTH 16 0
BBX 16 16 0 -2
BITMAP
0410
7f7f
0490
1ffc
0084
7fff
0084
1ffc
0080
3ffe
2222
1ffc
1224
7fff
0000
0000
ENDCHAR
STARTCHAR ch-463
ENCODING 463
SWIDTH 1000 0
DWIDTH 16 0
BBX 16 16 0 -2
BITMAP
0240
7fff
0250
2fff
2bd0
3a92
0bd2
3a52
2bd4
2a94
4a88
13d9
2225
4043
0000
0000
ENDCHAR
STARTCHAR ch-464
ENCODING 464
SWIDTH 1000 0
DWIDTH 16 0
BBX 16 16 0 -2
BITMAP
0410
7fff
0410
0822
35ff
1682
18fe
6482
0afe
1248
6e48
3249
1489
0907
0000
0000
ENDCHAR
STARTCHAR ch-465
ENCODING 465
SWIDTH 1000 0
DWIDTH 16 0
BBX 16 16 0 -2
BITMAP
0808
7f7f
0908
03f8
0410
3ffe
2222
0ff8
0fe8
0fe8
07f0
0a20
01c0
0e38
0000
0000
ENDCHAR
STARTCHAR ch-466
ENCODING 466
SWIDTH 1000 0
DWIDTH 16 0
BBX 16 16 0 -2
BITMAP
0410
7f7f
0410
027e
3c42
087a
7f7e
0840
1c7f
2a91
49a9
0881
08f9
0807
0000
0000
ENDCHAR
STARTCHAR ch-469
ENCODING 469
SWIDTH 1000 0
DWIDTH 16 0
BBX 16 16 0 -2
BITMAP
0220
7fff
0a20
08fe
3e92
08fe
3e92
08fe
7e10
09ff
1d11
2b15
497d
0902
0000
0000
ENDCHAR
STARTCHAR ch-471
ENCODING 471
SWIDTH 1000 0
DWIDTH 16 0
BBX 16 16 0 -2
BITMAP
0410
7fff
0410
4108
27c8
010f
77d5
1545
27c4
7104
138c
1552
2121
5fff
0000
0000
ENDCHAR
STARTCHAR ch-472
ENCODING 472
SWIDTH 1000 0
DWIDTH 16 0
BBX 16 16 0 -2
BITMAP
0410
7f7f
0490
00f0
3fff
2081
27fd
20f8
23f8
2248
23e8
23f8
4a42
13f9
0000
0000
ENDCHAR
STARTCHAR ch-473
ENCODING 473
SWIDTH 1000 0
DWIDTH 16 0
BBX 16 16 0 -2
BITMAP
0410
7f7f
0410
081e
7f92
1213
7fa3
1840
2c9f
5311
2611
4b0a
1284
264a
0000
0000
ENDCHAR
STARTCHAR ch-474
ENCODING 474
SWIDTH 1000 0
DWIDTH 16 0
BBX 16 16 0 -2
BITMAP
0410
7f7f
0490
3ffe
0080
1ffc
3ffe
2412
3ffe
1ffc
1004
1ffc
1ffc
6003
0000
0000
ENDCHAR
STARTCHAR ch-476
ENCODING 476
SWIDTH 1000 0
DWIDTH 16 0
BBX 16 16 0 -2
BITMAP
0220
7fff
1f20
043e
3f4a
0c12
16a2
2d4c
02b8
3c97
02a0
0490
0a88
0100
0000
0000
ENDCHAR
STARTCHAR ch-477
ENCODING 477
SWIDTH 1000 0
DWIDTH 16 0
BBX 16 16 0 -2
BITMAP
0808
7f7f
0808
3e10
087c
7f14
2a94
5d65
0845
7f07
1ffc
7fff
0408
1ff8
0000
0000
ENDCHAR
STARTCHAR ch-478
ENCODING 478
SWIDTH 1000 0
DWIDTH 16 0
BBX 16 16 0 -2
BITMAP
0808
7f7f
0808
3ffe
0400
0ffc
1404
07fc
7e7f
1010
3e1e
5232
1252
1e1e
0000
0000
ENDCHAR
STARTCHAR ch-479
ENCODING 479
SWIDTH 1000 0
DWIDTH 16 0
BBX 16 16 0 -2
BITMAP
0410
7f7f
0410
1ffc
1084
1ffc
1084
1ffc
0000
7f7f
4949
7f7f
4949
7f7f
0000
0000
ENDCHAR
STARTCHAR ch-481
ENCODING 481
SWIDTH 1000 0
DWIDTH 16 0
BBX 16 16 0 -2
BITMAP
0410
7fff
0430
21fc
1088
03fe
7a22
0afa
1222
2272
1252
1272
2202
5fff
0000
0000
ENDCHAR
STARTCHAR ch-482
ENCODING 482
SWIDTH 1000 0
DWIDTH 16 0
BBX 16 16 0 -2
BITMAP
0410
7f7f
0410
12a8
26af
4bf1
1001
33e9
5009
13e9
108a
13e4
108a
13f1
0000
0000
ENDCHAR
STARTCHAR ch-483
ENCODING 483
SWIDTH 1000 0
DWIDTH 16 0
BBX 16 16 0 -2
BITMAP
0410
7f7f
0410
3ffe
2222
3ffe
1020
20be
7fa0
3fbf
2080
3fbe
3fa0
41bf
0000
0000
ENDCHAR
STARTCHAR ch-484
ENCODING 484
SWIDTH 1000 0
DWIDTH 16 0
BBX 16 16 0 -2
BITMAP
0210
7fff
0210
3d24
25fe
3c40
27ff
2488
3d27
26aa
2470
24ac
4524
0c60
0000
0000
ENDCHAR
STARTCHAR ch-485
ENCODING 485
SWIDTH 1000 0
DWIDTH 16 0
BBX 16 16 0 -2
BITMAP
0808
7f7f
0888
0be8
1232
3e3c
0be8
1634
3e3e
03e0
0080
7fff
0888
1084
0000
0000
ENDCHAR
STARTCHAR ch-486
ENCODING 486
SWIDTH 1000 0
DWIDTH 16 0
BBX 16 16 0 -2
BITMAP
0410
7f7f
0490
3fff
2208
2fbe
271c
2aaa
23f8
27fc
2ffe
2040
4140
0080
0000
0000
ENDCHAR
STARTCHAR ch-488
ENCODING 488
SWIDTH 1000 0
DWIDTH 16 0
BBX 16 16 0 -2
BITMAP
0410
7f7f
0490
3fff
2110
2ffe
2112
2ffe
2820
2f3c
2820
2fbe
4000
0892
0000
0000
ENDCHAR
STARTCHAR ch-489
ENCODING 489
SWIDTH 1000 0
DWIDTH 16 0
BBX 16 16 0 -2
BITMAP
0410
7fff
27fc
1248
47fe
3150
1648
0a47
17fa
7248
13f8
1248
13f8
1208
0000
0000
ENDCHAR
STARTCHAR ch-490
ENCODING 490
SWIDTH 1000 0
DWIDTH 16 0
BBX 16 16 0 -2
BITMAP
0808
7f7f
3f90
2490
7fd0
249f
3fa4
3f84
2484
3f84
1114
7f88
0414
7be3
0000
0000
ENDCHAR
STARTCHAR ch-491
ENCODING 491
SWIDTH 1000 0
DWIDTH 16 0
BBX 16 16 0 -2
BITMAP
0410
7fff
0410
47ff
33fe
1252
43fe
31fc
1104
09fc
11fc
6020
23fe
2020
0000
0000
ENDCHAR
STARTCHAR ch-492
ENCODING 492
SWIDTH 1000 0
DWIDTH 16 0
BBX 16 16 0 -2
BITMAP
0410
7f7f
0410
3efe
2292
24fe
2810
25ff
22fe
32fe
2a82
24fe
20fe
2183
0000
0000
ENDCHAR
STARTCHAR ch-493
ENCODING 493
SWIDTH 1000 0
DWIDTH 16 0
BBX 16 16 0 -2
BITMAP
0808
7e7f
0888
7fff
4421
0810
1f3e
3102
1f3e
1f20
113f
3f81
0501
090e
0000
0000
ENDCHAR
STARTCHAR ch-495
ENCODING 495
SWIDTH 1000 0
DWIDTH 16 0
BBX 16 16 0 -2
BITMAP
0410
7f7f
0410
3f84
2084
3fbf
2704
2fa4
2714
5ac4
020c
2880
284a
4ff9
0000
0000
ENDCHAR
STARTCHAR ch-496
ENCODING 496
SWIDTH 1000 0
DWIDTH 16 0
BBX 16 16 0 -2
BITMAP
0410
7f7f
0410
0801
73e1
4929
7669
0a09
1109
3f89
4449
3f89
1501
7fc7
0000
0000
ENDCHAR
STARTCHAR ch-497
ENCODING 497
SWIDTH 1000 0
DWIDTH 16 0
BBX 16 16 0 -2
BITMAP
0410
3f7e
0490
1ffe
1100
57fc
3444
17fc
3444
57fc
10a9
113f
2221
043f
0000
0000
ENDCHAR
STARTCHAR ch-498
ENCODING 498
SWIDTH 1000 0
DWIDTH 16 0
BBX 16 16 0 -2
BITMAP
0410
7fff
0410
1000
13fe
1200
7e78
1248
3278
5aee
16aa
12ee
1200
13ff
0000
0000
ENDCHAR
STARTCHAR ch-502
ENCODING 502
SWIDTH 1000 0
DWIDTH 16 0
BBX 16 16 0 -2
BITMAP
0410
7f7f
0410
3fff
2082
2f3c
2208
2fbe
271c
2aaa
2040
227c
4240
1fff
0000
0000
ENDCHAR
STARTCHAR ch-503
ENCODING 503
SWIDTH 1000 0
DWIDTH 16 0
BBX 16 16 0 -2
BITMAP
0808
7f7f
0808
1010
7cfe
0014
7dff
0020
7c40
00fe
7c42
447e
4442
7c7e
0000
0000
ENDCHAR
STARTCHAR ch-504
ENCODING 504
SWIDTH 1000 0
DWIDTH 16 0
BBX 16 16 0 -2
BITMAP
0410
7f7f
0410
7f10
107f
2812
4d14
16ff
2410
4e3e
1562
24be
4422
183e
0000
0000
ENDCHAR
STARTCHAR ch-505
ENCODING 505
SWIDTH 1000 0
DWIDTH 16 0
BBX 16 16 0 -2
BITMAP
0808
7f7f
0808
10fe
7c82
00fe
7c82
00fe
7c40
01ff
7c91
44a9
44f9
7c06
0000
0000
ENDCHAR
STARTCHAR ch-506
ENCODING 506
SWIDTH 1000 0
DWIDTH 16 0
BBX 16 16 0 -2
BITMAP
0808
7f7f
0808
7f7f
7d5f
4141
7f7f
4221
4ff9
5421
47f9
47f1
4421
47fb
0000
0000
ENDCHAR
STARTCHAR ch-507
ENCODING 507
SWIDTH 1000 0
DWIDTH 16 0
BBX 16 16 0 -2
BITMAP
0220
7fff
11fc
0d04
45fc
27de
0a52
13de
7020
17ff
1070
10a8
1127
1222
0000
0000
ENDCHAR
STARTCHAR ch-509
ENCODING 509
SWIDTH 1000 0
DWIDTH 16 0
BBX 16 16 0 -2
BITMAP
0410
7fff
0410
0000
087c
7f44
227c
7f44
087c
7f44
087c
2a29
4949
0887
0000
0000
ENDCHAR
STARTCHAR ch-510
ENCODING 510
SWIDTH 1000 0
DWIDTH 16 0
BBX 16 16 0 -2
BITMAP
0410
7f7f
0410
0820
083f
7f42
087f
7f41
497f
7f41
1c7f
2a41
497f
0841
0000
0000
ENDCHAR
STARTCHAR ch-511
ENCODING 511
SWIDTH 1000 0
DWIDTH 16 0
BBX 16 16 0 -2
BITMAP
0220
7fff
1ffc
3fff
2889
46b2
0848
0ffe
1840
2ffc
4840
0ffc
0840
0ffe
0000
0000
ENDCHAR
ENDFONT
